<?xml version="1.0" encoding="UTF-8"?>
<svg width="882px" height="25px" viewBox="0 0 882 25" version="1.1" xmlns="http://www.w3.org/2000/svg" xmlns:xlink="http://www.w3.org/1999/xlink">
    <!-- Generator: Sketch 51.3 (57544) - http://www.bohemiancoding.com/sketch -->
    <title>cid-04</title>
    <desc>Created with Sketch.</desc>
    <defs></defs>
    <g id="Symbols" stroke="none" stroke-width="1" fill="none" fill-rule="evenodd">
        <g id="Top-Nav" transform="translate(-478.000000, -266.000000)" fill="#E9492E" fill-rule="nonzero">
            <g id="cid-04" transform="translate(478.000000, 266.000000)">
                <path d="M22.942928,19.6613272 C21.1166253,21.6384439 17.9776675,24 12.6699752,24 C5.53598015,24 0,19.9359268 0,11.97254 C0,4.5583524 4.96526055,0 12.3275434,0 C17.0645161,0 21.0024814,1.81235698 23,4.00915332 L20.6029777,9.33638444 C17.9205955,7.19450801 15.3523573,6.4805492 12.7270471,6.4805492 C9.81637717,6.4805492 7.24813896,7.96338673 7.24813896,11.7528604 C7.24813896,15.4324943 9.81637717,17.0251716 12.6699752,17.0251716 C15.6377171,17.0251716 18.3200993,16.4759725 20.6029777,14.2242563 L22.942928,19.6613272 Z" id="Shape"></path>
                <path d="M43.9718004,24 C36.9219089,24 31,19.9452055 31,12.0547945 C31,3.83561644 36.4707158,0 43.9718004,0 C51.5292842,0 57,4.2739726 57,12.109589 C57,20.0547945 51.1908894,24 43.9718004,24 Z M43.9718004,6.24657534 C39.9110629,6.24657534 37.7678959,8.65753425 37.7678959,12.109589 C37.7678959,15.3424658 39.967462,17.8082192 43.9718004,17.8082192 C48.032538,17.8082192 50.2321041,15.4520548 50.2321041,12.109589 C50.2321041,8.71232877 48.032538,6.24657534 43.9718004,6.24657534 Z" id="Shape"></path>
                <path d="M88.5066414,23.9448441 L87.516129,14.4580336 C85.4800759,17.4916067 83.2789374,20.5803357 81.2979127,23.6690647 L78.5464896,23.6690647 L73.3187856,14.8441247 C72.9886148,17.8776978 72.7134725,20.911271 72.3833017,24 L66,24 L67.7058824,1.05515588 L73.373814,1 L80.5825427,13.7410072 C83.4440228,9.38369305 85.9203036,5.35731415 88.8368121,1 L93.1840607,1.05515588 L95,24 L88.5066414,24 L88.5066414,23.9448441 Z" id="Shape"></path>
                <path d="M127.616698,23.9448441 L126.571157,14.4580336 C124.535104,17.4916067 122.333966,20.5803357 120.352941,23.6690647 L117.601518,23.6690647 L112.373814,14.8441247 C112.043643,17.8776978 111.768501,20.911271 111.43833,24 L105,24 L106.705882,1.05515588 L112.373814,1 L119.582543,13.7410072 C122.444023,9.38369305 124.920304,5.35731415 127.836812,1 L132.184061,1.05515588 L134,24 L127.616698,24 L127.616698,23.9448441 Z" id="Shape"></path>
                <path d="M155.61165,25 C148.019417,25 144,20.245283 144,12.8301887 L144,1 L150.978155,1 L150.978155,11.9811321 C150.978155,16.5660377 152.876214,18.1509434 155.667476,18.1509434 C158.179612,18.1509434 160.133495,16.1132075 160.133495,11.9245283 L160.133495,1 L167,1 L167,12.5471698 C166.944175,20.245283 163.036408,25 155.61165,25 Z" id="Shape"></path>
                <path d="M196.315,23.9447115 L184.765,12.8317308 C184.765,14.3798077 184.71,15.5408654 184.71,23.9447115 L178,23.9447115 L178,1 L182.345,1 L193.345,11.5048077 L193.4,1 L200,1 L200,24 L196.315,24 L196.315,23.9447115 Z" id="Shape"></path>
                <polygon id="Shape" points="210 23.9447115 210 1 217 1 217 24 210 24"></polygon>
                <polygon id="Shape" points="242.161692 7.19230769 242.161692 24 234.952736 24 234.895522 7.19230769 227 7.19230769 227 1 250 1 250 7.19230769"></polygon>
                <path d="M271.955665,15.2644231 L271.955665,24 L264.817734,24 L264.817734,15.0985577 C262.325123,11.0072115 259.549261,6.08653846 257,1.99519231 L257.226601,1 L264.194581,1 L269.009852,8.62980769 C270.70936,5.86538462 271.729064,3.76442308 273.371921,1 L279.716749,1 L280,1.88461538 L271.955665,15.2644231 Z" id="Shape"></path>
                <polygon id="Shape" points="308 23.9447115 308 1 315 1 315 24 308 24"></polygon>
                <path d="M347.56167,23.9448441 L346.571157,14.4580336 C344.535104,17.4916067 342.333966,20.5803357 340.352941,23.6690647 L337.601518,23.6690647 L332.373814,14.8441247 C332.043643,17.8776978 331.768501,20.911271 331.43833,24 L325,24 L326.705882,1.05515588 L332.373814,1 L339.582543,13.7410072 C342.444023,9.38369305 344.920304,5.35731415 347.836812,1 L352.184061,1.05515588 L354,24 L347.56167,24 L347.56167,23.9448441 Z" id="Shape"></path>
                <path d="M375.991501,17.9182692 L372.13881,17.9182692 L372.13881,24 L365,24 L365.056657,1 L376.104816,1 C381.487252,1 385,4.04086538 385,9.45913462 C385,14.7668269 380.92068,17.9182692 375.991501,17.9182692 Z M375.764873,7.19230769 L372.195467,7.19230769 L372.195467,11.9471154 L375.481586,11.9471154 C377.23796,11.9471154 378.25779,10.8413462 378.25779,9.45913462 C378.25779,8.02163462 377.464589,7.19230769 375.764873,7.19230769 Z" id="Shape"></path>
                <path d="M408.573604,23.9448441 L401.538071,15.8369305 L400.979695,15.8369305 L400.979695,23.9448441 L394.055838,23.9448441 L394,1 L406.284264,1 C411.64467,1 414.380711,3.86810552 414.380711,8.22541966 C414.380711,11.5347722 411.979695,14.0719424 408.852792,15.17506 L416,23.0071942 L415.553299,24 L408.573604,24 L408.573604,23.9448441 Z M405.055838,6.3501199 L400.923858,6.3501199 L400.923858,10.1007194 L404.888325,10.1007194 C406.451777,10.0455635 407.28934,9.10791367 407.28934,8.28057554 C407.345178,7.45323741 406.730964,6.3501199 405.055838,6.3501199 Z" id="Shape"></path>
                <path d="M435.9718,24 C428.921909,24 423,19.9452055 423,12.0547945 C423,3.83561644 428.470716,0 435.9718,0 C443.529284,0 449,4.2739726 449,12.109589 C449,20.0547945 443.247289,24 435.9718,24 Z M435.9718,6.24657534 C431.911063,6.24657534 429.767896,8.65753425 429.767896,12.109589 C429.767896,15.3424658 431.967462,17.8082192 435.9718,17.8082192 C440.032538,17.8082192 442.232104,15.4520548 442.232104,12.109589 C442.232104,8.71232877 440.032538,6.24657534 435.9718,6.24657534 Z" id="Shape"></path>
                <polygon id="Shape" points="472.241228 24 467.087719 24 457 1.88038278 457.219298 1.05502392 464.072368 1.05502392 469.774123 14.4258373 475.311404 1 481.725877 1 482 1.77033493"></polygon>
                <path d="M491,24 L491.053892,1 L508.676647,1 L508.676647,6.52884615 L497.790419,6.52884615 C497.790419,8.74038462 497.736527,9.18269231 497.736527,9.95673077 L506.898204,9.95673077 L506.898204,15.2091346 L497.736527,15.2091346 L497.736527,18.4158654 L509,18.4158654 L509,24 L491,24 Z" id="Shape"></path>
                <path d="M542.54943,24 L541.557034,14.4580336 C539.51711,17.4916067 537.311787,20.5803357 535.326996,23.6690647 L532.570342,23.6690647 L527.3327,14.8441247 C527.001901,17.8776978 526.726236,20.911271 526.395437,24 L520,24 L521.709125,1.05515588 L527.387833,1 L534.610266,13.7410072 C537.477186,9.38369305 539.958175,5.35731415 542.825095,1 L547.180608,1.05515588 L549,24 L542.54943,24 Z" id="Shape"></path>
                <path d="M559,24 L559.054054,1 L576.72973,1 L576.72973,6.52884615 L565.810811,6.52884615 C565.810811,8.74038462 565.756757,9.18269231 565.756757,9.95673077 L574.945946,9.95673077 L574.945946,15.2091346 L565.756757,15.2091346 L565.756757,18.4158654 L577,18.4158654 L577,24 L559,24 Z" id="Shape"></path>
                <path d="M606.315,23.9447115 L594.765,12.8317308 C594.765,14.3798077 594.71,15.5408654 594.71,23.9447115 L588,23.9447115 L588,1 L592.345,1 L603.345,11.5048077 L603.4,1 L610,1 L610,24 L606.315,24 L606.315,23.9447115 Z" id="Shape"></path>
                <polygon id="Shape" points="634.161692 7.19230769 634.161692 24 626.952736 24 626.895522 7.19230769 619 7.19230769 619 1 642 1 642 7.19230769"></polygon>
                <path d="M679.188025,24 L669,24 L669,1 L680.139654,1 C687.472793,1 690.999417,6.4313253 690.999417,12.5277108 C691.055395,19.0674699 687.080946,24 679.188025,24 Z M678.12444,6.8746988 L676.053248,6.8746988 L676.053248,18.0698795 L678.012484,18.0698795 C682.154868,18.0698795 684.22606,15.686747 684.22606,12.6385542 C684.22606,9.3686747 682.938562,6.8746988 678.12444,6.8746988 Z" id="Shape"></path>
                <polygon id="Shape" points="702 23.9447115 702 1 709 1 709 24 702 24"></polygon>
                <path d="M730.028571,24 C726.142857,24 723.342857,23.0068966 719,20.5241379 L721.285714,14.8965517 C724.657143,17.0482759 727.514286,17.8758621 729.628571,17.8758621 C731.742857,17.8758621 734.028571,17.3793103 734.028571,16.1655172 C734.028571,15.1172414 730.6,14.8413793 728.657143,14.7310345 C724.428571,14.4551724 719.114286,13.2413793 719.114286,7.6137931 C719.114286,1.26896552 725.971429,0 729.971429,0 C733.457143,0 736.771429,1.10344828 740.657143,3.42068966 L738.714286,8.44137931 C735.514286,6.62068966 732.371429,6.12413793 730.028571,6.12413793 C726.771429,6.12413793 726.085714,6.95172414 726.085714,7.44827586 C726.085714,8.27586207 729.285714,8.44137931 730.485714,8.44137931 C734.6,8.82758621 741,9.54482759 741,16.1103448 C741,22.4551724 735.114286,24 730.028571,24 Z" id="Shape"></path>
                <polygon id="Shape" points="764.161692 7.19230769 764.161692 24 756.952736 24 756.895522 7.19230769 749 7.19230769 749 1 772 1 772 7.19230769"></polygon>
                <path d="M794.573604,23.9448441 L787.538071,15.8369305 L786.979695,15.8369305 L786.979695,23.9448441 L780.055838,23.9448441 L780,1 L792.284264,1 C797.64467,1 800.380711,3.86810552 800.380711,8.22541966 C800.380711,11.5347722 797.979695,14.0719424 794.852792,15.17506 L802,23.0071942 L801.553299,24 L794.573604,24 L794.573604,23.9448441 Z M791.055838,6.3501199 L786.923858,6.3501199 L786.923858,10.1007194 L790.888325,10.1007194 C792.451777,10.0455635 793.28934,9.10791367 793.28934,8.28057554 C793.28934,7.45323741 792.675127,6.3501199 791.055838,6.3501199 Z" id="Shape"></path>
                <polygon id="Shape" points="811 23.9447115 811 1 818 1 818 24 811 24"></polygon>
                <path d="M851.942928,19.6613272 C850.116625,21.6384439 846.977667,24 841.669975,24 C834.53598,24 829,19.9359268 829,11.97254 C829,4.5583524 833.965261,0 841.327543,0 C846.064516,0 850.002481,1.81235698 852,4.00915332 L849.602978,9.33638444 C846.920596,7.19450801 844.352357,6.4805492 841.727047,6.4805492 C838.816377,6.4805492 836.248139,7.96338673 836.248139,11.7528604 C836.248139,15.4324943 838.759305,17.0251716 841.669975,17.0251716 C844.637717,17.0251716 847.320099,16.4759725 849.602978,14.2242563 L851.942928,19.6613272 Z" id="Shape"></path>
                <polygon id="Shape" points="874.161692 7.19230769 874.161692 24 866.952736 24 866.895522 7.19230769 859 7.19230769 859 1 882 1 882 7.19230769"></polygon>
            </g>
        </g>
    </g>
</svg>