<?xml version="1.0" encoding="UTF-8"?>
<svg width="882px" height="99px" viewBox="0 0 882 99" version="1.1" xmlns="http://www.w3.org/2000/svg" xmlns:xlink="http://www.w3.org/1999/xlink">
    <!-- Generator: Sketch 51.3 (57544) - http://www.bohemiancoding.com/sketch -->
    <title>count-me-in-03</title>
    <desc>Created with Sketch.</desc>
    <defs></defs>
    <g id="Symbols" stroke="none" stroke-width="1" fill="none" fill-rule="evenodd">
        <g id="Top-Nav" transform="translate(-478.000000, -127.000000)" fill="#E9492E" fill-rule="nonzero">
            <g id="count-me-in-03" transform="translate(478.000000, 127.000000)">
                <path d="M64.3127962,97 L32.3199052,97 C21.3649289,97 13.2440758,94.8085352 7.95734597,90.4256055 C2.67061611,86.0426759 0,79.2491349 0,70.0997693 L0,29.0645905 C0,19.9152249 2.67061611,13.121684 7.95734597,8.6839677 C13.2440758,4.24625144 21.3649289,2 32.3199052,2 L64.3127962,2 C65.9478673,2 67.2014218,2.38350634 67.9099526,3.09573241 C68.6729858,3.8627451 69,5.06805075 69,6.71164937 L69,22.6545559 C69,24.3529412 68.6184834,25.5582468 67.9099526,26.2704729 C67.1469194,27.0374856 65.9478673,27.3662053 64.3127962,27.3662053 L37.9336493,27.3662053 C35.2085308,27.3662053 33.1919431,27.9140715 31.8838863,29.0098039 C30.5758294,30.1055363 29.9218009,31.7491349 29.9218009,33.9405998 L29.9218009,65.3333333 C29.9218009,67.5247982 30.5758294,69.1136101 31.8838863,70.1545559 C33.1919431,71.1407151 35.2085308,71.6885813 37.9336493,71.6885813 L64.3127962,71.6885813 C65.9478673,71.6885813 67.2014218,72.0720877 67.9099526,72.7843137 C68.6729858,73.5513264 69,74.7566321 69,76.4002307 L69,92.0692042 C69,93.7675894 68.6184834,94.972895 67.9099526,95.6851211 C67.2014218,96.6164937 66.0023697,97 64.3127962,97 Z" id="Shape"></path>
                <path d="M164,72.0698061 C164,76.1285319 163.397059,79.8033241 162.245989,83.0941828 C161.040107,86.3850416 158.957219,89.2371191 155.887701,91.5407202 C152.872995,93.899169 148.652406,95.7091413 143.335561,97.0254848 C138.018717,98.3418283 131.276738,99 123.054813,99 C114.887701,99 108.090909,98.3418283 102.719251,97.0254848 C97.3475936,95.7091413 93.1270053,93.899169 90.1122995,91.5407202 C87.0975936,89.1822715 84.959893,86.3850416 83.7540107,83.0941828 C82.5481283,79.8033241 82,76.1285319 82,72.0698061 L82,27.0398892 C82,22.9811634 82.6029412,19.3063712 83.7540107,16.0155125 C84.9050802,12.7246537 87.0427807,9.87257618 90.1122995,7.51412742 C93.1270053,5.15567867 97.3475936,3.29085873 102.719251,1.97451524 C108.090909,0.658171745 114.832888,0 123.054813,0 C131.221925,0 137.963904,0.658171745 143.335561,1.97451524 C148.652406,3.29085873 152.818182,5.15567867 155.887701,7.51412742 C158.902406,9.87257618 161.040107,12.7246537 162.245989,16.0155125 C163.451872,19.3063712 164,22.9811634 164,27.0398892 L164,72.0698061 Z M111.98262,67.2980609 C111.98262,69.0531856 112.640374,70.534072 113.955882,71.7407202 C115.27139,72.9473684 118.286096,73.5506925 123.054813,73.5506925 C127.823529,73.5506925 130.838235,72.9473684 132.153743,71.7407202 C133.469251,70.534072 134.127005,69.0531856 134.127005,67.2980609 L134.127005,31.7567867 C134.127005,30.1113573 133.469251,28.6304709 132.153743,27.4786704 C130.838235,26.2720222 127.823529,25.6686981 123.054813,25.6686981 C118.286096,25.6686981 115.27139,26.2720222 113.955882,27.4786704 C112.640374,28.6853186 111.98262,30.1113573 111.98262,31.7567867 L111.98262,67.2980609 Z" id="Shape"></path>
                <path d="M262,72.0768796 C262,76.1345393 261.394631,79.8083663 260.183893,83.0983607 C258.973154,86.388355 256.881879,89.2396834 253.8,91.5426795 C250.773154,93.9005088 246.590604,95.7100057 241.252349,97.0260034 C235.914094,98.3420011 229.2,99 221,99 C212.8,99 206.030872,98.3420011 200.747651,97.0260034 C195.46443,95.7100057 191.281879,93.9005088 188.2,91.5426795 C185.173154,89.1848502 183.026846,86.388355 181.816107,83.0983607 C180.605369,79.8083663 180,76.1345393 180,72.0768796 L180,6.71565856 C180,5.07066139 180.385235,3.80949689 181.100671,3.09666478 C181.871141,2.32899943 183.081879,2 184.732886,2 L205.53557,2 C207.186577,2 208.452349,2.38383267 209.167785,3.09666478 C209.938255,3.86433013 210.268456,5.07066139 210.268456,6.71565856 L210.268456,66.9225551 C210.268456,68.6772188 210.928859,70.1577162 212.249664,71.3640475 C213.57047,72.5703787 216.542282,73.1187111 221.110067,73.1187111 C225.787919,73.1187111 228.814765,72.5155455 230.13557,71.3640475 C231.456376,70.1577162 232.116779,68.6772188 232.116779,66.9225551 L232.116779,6.71565856 C232.116779,5.07066139 232.502013,3.80949689 233.21745,3.09666478 C233.987919,2.32899943 235.198658,2 236.849664,2 L257.212081,2 C258.863087,2 260.128859,2.38383267 260.844295,3.09666478 C261.614765,3.86433013 261.944966,5.07066139 261.944966,6.71565856 L261.944966,72.0768796 L262,72.0768796 Z" id="Shape"></path>
                <path d="M303.497294,97 L283.713126,97 C282.014208,97 280.808525,96.6162724 280.096076,95.9036353 C279.328823,95.13618 279,93.9301789 279,92.2856319 L279,6.76918638 C279,5.12463935 279.383627,3.86381997 280.096076,3.15118292 C280.863329,2.38372764 282.069012,2.05481823 283.713126,2.05481823 L297.414073,2.05481823 C299.058187,2.05481823 300.537889,2.32890941 301.688769,2.82227351 C302.894452,3.37045586 304.045332,4.24754761 305.196211,5.61800346 L330.789581,34.8361223 L330.789581,6.71436815 C330.789581,5.06982112 331.173207,3.80900173 331.885656,3.09636469 C332.652909,2.32890941 333.858593,2 335.502706,2 L355.286874,2 C356.930988,2 358.191475,2.38372764 358.903924,3.09636469 C359.671177,3.86381997 360,5.06982112 360,6.71436815 L360,92.2308136 C360,93.9301789 359.616373,95.13618 358.903924,95.8488171 C358.136671,96.6162724 356.930988,96.9451818 355.286874,96.9451818 L335.55751,96.9451818 C333.858593,96.9451818 332.652909,96.5614541 331.94046,95.8488171 C331.173207,95.0813618 330.844384,93.8753606 330.844384,92.2308136 L330.844384,76.0046163 L308.265223,48.7051356 L308.265223,92.2308136 C308.265223,93.9301789 307.881597,95.13618 307.169147,95.8488171 C306.401894,96.6162724 305.196211,97 303.497294,97 Z" id="Shape"></path>
                <path d="M424.148302,97 L402.796951,97 C401.099792,97 399.895357,96.6162724 399.183645,95.9036353 C398.417186,95.13618 398.088704,93.9301789 398.088704,92.2856319 L398.088704,27.4356607 L378.708247,27.4356607 C377.011088,27.4356607 375.806653,27.0519331 375.094941,26.339296 C374.328482,25.5718407 374,24.3658396 374,22.7212926 L374,6.71436815 C374,5.06982112 374.383229,3.80900173 375.094941,3.09636469 C375.8614,2.32890941 377.065835,2 378.708247,2 L448.291753,2 C449.934165,2 451.193347,2.38372764 451.905059,3.09636469 C452.671518,3.86381997 453,5.06982112 453,6.71436815 L453,22.6664743 C453,24.3658396 452.616771,25.5718407 451.905059,26.2844778 C451.1386,27.0519331 449.934165,27.3808425 448.291753,27.3808425 L428.911296,27.3808425 L428.911296,92.1759954 C428.911296,93.8753606 428.528067,95.0813618 427.816355,95.7939988 C426.995149,96.6162724 425.790714,97 424.148302,97 Z" id="Shape"></path>
                <path d="M517.18761,97 L497.674459,97 C495.98948,97 494.793688,96.6160508 494.087084,95.9030023 C493.326125,95.1351039 493,93.9284065 493,92.2829099 L493,6.71709007 C493,5.07159353 493.380479,3.81004619 494.087084,3.09699769 C494.848042,2.32909931 496.043834,2 497.674459,2 L518.763881,2 C520.177089,2 521.318527,2.32909931 522.242548,2.93244804 C523.166569,3.53579677 524.036236,4.57794457 524.797195,5.94919169 L536.592051,27.4503464 C537.026885,28.2182448 537.407364,28.8215935 537.679135,29.1506928 C538.00526,29.4797921 538.385739,29.6991917 538.929281,29.6991917 L540.125073,29.6991917 C540.668615,29.6991917 541.049094,29.534642 541.375219,29.1506928 C541.701344,28.8215935 542.027469,28.2182448 542.462303,27.4503464 L554.094097,5.94919169 C554.855056,4.52309469 555.724722,3.53579677 556.648743,2.93244804 C557.572764,2.32909931 558.714202,2 560.127411,2 L581.325541,2 C582.956166,2 584.206312,2.38394919 584.912916,3.09699769 C585.673875,3.86489607 586,5.07159353 586,6.71709007 L586,92.2829099 C586,93.9832564 585.619521,95.1899538 584.912916,95.9030023 C584.151958,96.6709007 582.956166,97 581.325541,97 L561.16014,97 C559.475161,97 558.279369,96.6160508 557.572764,95.9030023 C556.811806,95.1351039 556.485681,93.9284065 556.485681,92.2829099 L556.485681,45.7702079 L548.767387,60.1408776 C548.006429,61.6218245 547.028054,62.7188222 545.94097,63.3770208 C544.853887,64.0352194 543.495032,64.3643187 541.810053,64.3643187 L536.592051,64.3643187 C534.907072,64.3643187 533.548217,64.0352194 532.461134,63.3770208 C531.37405,62.7188222 530.450029,61.6218245 529.634717,60.1408776 L521.916423,45.7702079 L521.916423,92.22806 C521.916423,93.9284065 521.535944,95.1351039 520.82934,95.8481524 C520.068381,96.6160508 518.872589,97 517.18761,97 Z" id="Shape"></path>
                <path d="M671.329713,97 L610.670287,97 C608.986811,97 607.792087,96.6160508 607.086113,95.9030023 C606.325834,95.1351039 606,93.9284065 606,92.2829099 L606,6.71709007 C606,5.07159353 606.38014,3.81004619 607.086113,3.09699769 C607.846393,2.32909931 609.041117,2 610.670287,2 L671.329713,2 C672.958883,2 674.207913,2.38394919 674.913887,3.09699769 C675.674166,3.86489607 676,5.07159353 676,6.71709007 L676,22.1847575 C676,23.8851039 675.61986,25.0918014 674.913887,25.8048499 C674.153607,26.5727483 672.958883,26.9018476 671.329713,26.9018476 L635.216447,26.9018476 L635.216447,37.0490762 L660.685803,37.0490762 C662.314973,37.0490762 663.564003,37.4330254 664.269977,38.1460739 C665.030256,38.9139723 665.35609,40.1206697 665.35609,41.7661663 L665.35609,55.9174365 C665.35609,57.6177829 664.97595,58.8244804 664.269977,59.5375289 C663.509697,60.3054273 662.314973,60.6345266 660.685803,60.6345266 L635.216447,60.6345266 L635.216447,71.9884527 L671.275407,71.9884527 C672.904577,71.9884527 674.153607,72.3724018 674.859581,73.0854503 C675.61986,73.8533487 675.945694,75.0600462 675.945694,76.7055427 L675.945694,92.1732102 C675.945694,93.8735566 675.565555,95.080254 674.859581,95.7933025 C674.153607,96.6160508 672.958883,97 671.329713,97 Z" id="Shape"></path>
                <path d="M723.66611,97 C721.98414,97 720.790484,96.6162724 720.085142,95.9036353 C719.325543,95.13618 719,93.9301789 719,92.2856319 L719,76.6076168 C719,74.9630698 719.3798,73.7022504 720.085142,72.9896134 C720.844741,72.2221581 722.038397,71.8932487 723.66611,71.8932487 L736.579299,71.8932487 L736.579299,27.4356607 L723.66611,27.4356607 C721.98414,27.4356607 720.790484,27.0519331 720.085142,26.339296 C719.325543,25.5718407 719,24.3658396 719,22.7212926 L719,6.71436815 C719,5.06982112 719.3798,3.80900173 720.085142,3.09636469 C720.844741,2.32890941 722.038397,2 723.66611,2 L779.33389,2 C780.961603,2 782.209516,2.38372764 782.914858,3.09636469 C783.674457,3.86381997 784,5.06982112 784,6.71436815 L784,22.6664743 C784,24.3658396 783.6202,25.5718407 782.914858,26.2844778 C782.155259,27.0519331 780.961603,27.3808425 779.33389,27.3808425 L766.63773,27.3808425 L766.63773,71.728794 L779.33389,71.728794 C780.961603,71.728794 782.209516,72.1125216 782.914858,72.8251587 C783.674457,73.592614 784,74.7986151 784,76.4431621 L784,92.1211771 C784,93.8205424 783.6202,95.0265436 782.914858,95.7391806 C782.155259,96.5066359 780.961603,96.8355453 779.33389,96.8355453 L723.66611,96.8355453 L723.66611,97 Z" id="Shape"></path>
                <path d="M825.48073,97 L805.709939,97 C804.01217,97 802.807302,96.6162724 802.095335,95.9036353 C801.3286,95.13618 801,93.9301789 801,92.2856319 L801,6.76918638 C801,5.12463935 801.383367,3.86381997 802.095335,3.15118292 C802.862069,2.38372764 804.066937,2.05481823 805.709939,2.05481823 L819.401623,2.05481823 C821.044625,2.05481823 822.523327,2.32890941 823.673428,2.82227351 C824.878296,3.37045586 826.028398,4.24754761 827.178499,5.61800346 L852.809331,34.8361223 L852.809331,6.71436815 C852.809331,5.06982112 853.192698,3.80900173 853.904665,3.09636469 C854.6714,2.32890941 855.876268,2 857.51927,2 L877.290061,2 C878.933063,2 880.192698,2.38372764 880.904665,3.09636469 C881.6714,3.86381997 882,5.06982112 882,6.71436815 L882,92.2308136 C882,93.9301789 881.616633,95.13618 880.904665,95.8488171 C880.137931,96.6162724 878.933063,96.9451818 877.290061,96.9451818 L857.51927,96.9451818 C855.821501,96.9451818 854.616633,96.5614541 853.904665,95.8488171 C853.137931,95.0813618 852.809331,93.8753606 852.809331,92.2308136 L852.809331,76.0046163 L830.245436,48.7051356 L830.245436,92.2308136 C830.245436,93.9301789 829.862069,95.13618 829.150101,95.8488171 C828.383367,96.6162724 827.178499,97 825.48073,97 Z" id="Shape"></path>
            </g>
        </g>
    </g>
</svg>