<?xml version="1.0" encoding="UTF-8"?>
<svg width="182px" height="22px" viewBox="0 0 182 22" version="1.1" xmlns="http://www.w3.org/2000/svg" xmlns:xlink="http://www.w3.org/1999/xlink">
    <!-- Generator: Sketch 51.3 (57544) - http://www.bohemiancoding.com/sketch -->
    <title>count-me-in-03</title>
    <desc>Created with Sketch.</desc>
    <defs></defs>
    <g id="Page-1" stroke="none" stroke-width="1" fill="none" fill-rule="evenodd">
        <g id="Mobile" transform="translate(-66.000000, -744.000000)" fill="#FFFFFF" fill-rule="nonzero">
            <g id="count-me-in-03" transform="translate(66.000000, 744.000000)">
                <path d="M13.9810427,22 L7.02606635,22 C4.64454976,22 2.87914692,21.5155709 1.72985782,20.5467128 C0.58056872,19.5778547 0,18.0761246 0,16.0536332 L0,6.98269896 C0,4.96020761 0.58056872,3.45847751 1.72985782,2.47750865 C2.87914692,1.49653979 4.64454976,1 7.02606635,1 L13.9810427,1 C14.3364929,1 14.6090047,1.08477509 14.7630332,1.24221453 C14.92891,1.41176471 15,1.67820069 15,2.04152249 L15,5.56574394 C15,5.94117647 14.9170616,6.20761246 14.7630332,6.3650519 C14.5971564,6.53460208 14.3364929,6.60726644 13.9810427,6.60726644 L8.2464455,6.60726644 C7.65402844,6.60726644 7.21563981,6.7283737 6.93127962,6.97058824 C6.64691943,7.21280277 6.50473934,7.57612457 6.50473934,8.06055363 L6.50473934,15 C6.50473934,15.4844291 6.64691943,15.8356401 6.93127962,16.0657439 C7.21563981,16.283737 7.65402844,16.4048443 8.2464455,16.4048443 L13.9810427,16.4048443 C14.3364929,16.4048443 14.6090047,16.4896194 14.7630332,16.6470588 C14.92891,16.816609 15,17.083045 15,17.4463668 L15,20.9100346 C15,21.2854671 14.9170616,21.5519031 14.7630332,21.7093426 C14.6090047,21.9152249 14.3483412,22 13.9810427,22 Z" id="Shape"></path>
                <path d="M35,16.0155125 C35,16.9174515 34.875,17.734072 34.6363636,18.465374 C34.3863636,19.1966759 33.9545455,19.8304709 33.3181818,20.3423823 C32.6931818,20.866482 31.8181818,21.2686981 30.7159091,21.5612188 C29.6136364,21.8537396 28.2159091,22 26.5113636,22 C24.8181818,22 23.4090909,21.8537396 22.2954545,21.5612188 C21.1818182,21.2686981 20.3068182,20.866482 19.6818182,20.3423823 C19.0568182,19.8182825 18.6136364,19.1966759 18.3636364,18.465374 C18.1136364,17.734072 18,16.9174515 18,16.0155125 L18,6.00886427 C18,5.10692521 18.125,4.29030471 18.3636364,3.55900277 C18.6022727,2.82770083 19.0454545,2.19390582 19.6818182,1.66980609 C20.3068182,1.14570637 21.1818182,0.731301939 22.2954545,0.438781163 C23.4090909,0.146260388 24.8068182,0 26.5113636,0 C28.2045455,0 29.6022727,0.146260388 30.7159091,0.438781163 C31.8181818,0.731301939 32.6818182,1.14570637 33.3181818,1.66980609 C33.9431818,2.19390582 34.3863636,2.82770083 34.6363636,3.55900277 C34.8863636,4.29030471 35,5.10692521 35,6.00886427 L35,16.0155125 Z M24.2159091,14.9551247 C24.2159091,15.3451524 24.3522727,15.6742382 24.625,15.9423823 C24.8977273,16.2105263 25.5227273,16.3445983 26.5113636,16.3445983 C27.5,16.3445983 28.125,16.2105263 28.3977273,15.9423823 C28.6704545,15.6742382 28.8068182,15.3451524 28.8068182,14.9551247 L28.8068182,7.05706371 C28.8068182,6.69141274 28.6704545,6.36232687 28.3977273,6.10637119 C28.125,5.83822715 27.5,5.70415512 26.5113636,5.70415512 C25.5227273,5.70415512 24.8977273,5.83822715 24.625,6.10637119 C24.3522727,6.37451524 24.2159091,6.69141274 24.2159091,7.05706371 L24.2159091,14.9551247 Z" id="Shape"></path>
                <path d="M55,16.1712832 C55,17.0497456 54.8744966,17.8451102 54.6234899,18.557377 C54.3724832,19.2696439 53.9389262,19.8869418 53.3,20.3855285 C52.6724832,20.8959864 51.8053691,21.2877332 50.6986577,21.5726399 C49.5919463,21.8575466 48.2,22 46.5,22 C44.8,22 43.3966443,21.8575466 42.3013423,21.5726399 C41.2060403,21.2877332 40.3389262,20.8959864 39.7,20.3855285 C39.0724832,19.8750707 38.6275168,19.2696439 38.3765101,18.557377 C38.1255034,17.8451102 38,17.0497456 38,16.1712832 L38,2.02091577 C38,1.66478236 38.0798658,1.39174675 38.2281879,1.23742227 C38.3879195,1.07122668 38.6389262,1 38.9812081,1 L43.2939597,1 C43.6362416,1 43.8986577,1.0830978 44.0469799,1.23742227 C44.2067114,1.40361786 44.2751678,1.66478236 44.2751678,2.02091577 L44.2751678,15.0553985 C44.2751678,15.4352742 44.4120805,15.7557942 44.685906,16.0169587 C44.9597315,16.2781232 45.5758389,16.3968344 46.5228188,16.3968344 C47.4926174,16.3968344 48.1201342,16.2662521 48.3939597,16.0169587 C48.6677852,15.7557942 48.804698,15.4352742 48.804698,15.0553985 L48.804698,2.02091577 C48.804698,1.66478236 48.8845638,1.39174675 49.0328859,1.23742227 C49.1926174,1.07122668 49.4436242,1 49.785906,1 L54.0073826,1 C54.3496644,1 54.6120805,1.0830978 54.7604027,1.23742227 C54.9201342,1.40361786 54.9885906,1.66478236 54.9885906,2.02091577 L54.9885906,16.1712832 L55,16.1712832 Z" id="Shape"></path>
                <path d="M63.1414073,22 L58.9891746,22 C58.6326116,22 58.379567,21.915176 58.2300406,21.7576457 C58.0690122,21.5879977 58,21.321408 58,20.9578765 L58,2.0542412 C58,1.69070975 58.0805142,1.41200231 58.2300406,1.25447201 C58.391069,1.084824 58.6441137,1.01211771 58.9891746,1.01211771 L61.864682,1.01211771 C62.2097429,1.01211771 62.5202977,1.07270629 62.7618403,1.18176572 C63.014885,1.30294287 63.2564276,1.49682631 63.4979702,1.79976919 L68.8694181,8.25851125 L68.8694181,2.04212349 C68.8694181,1.67859204 68.9499323,1.39988459 69.0994587,1.2423543 C69.2604871,1.07270629 69.5135318,1 69.8585927,1 L74.0108254,1 C74.3558863,1 74.620433,1.084824 74.7699594,1.2423543 C74.9309878,1.41200231 75,1.67859204 75,2.04212349 L75,20.9457588 C75,21.321408 74.9194858,21.5879977 74.7699594,21.745528 C74.608931,21.915176 74.3558863,21.9878823 74.0108254,21.9878823 L69.8700947,21.9878823 C69.5135318,21.9878823 69.2604871,21.9030583 69.1109608,21.745528 C68.9499323,21.57588 68.8809202,21.3092902 68.8809202,20.9457588 L68.8809202,17.3589152 L64.1420839,11.3242931 L64.1420839,20.9457588 C64.1420839,21.321408 64.0615697,21.5879977 63.9120433,21.745528 C63.7510149,21.915176 63.4979702,22 63.1414073,22 Z" id="Shape"></path>
                <path d="M86.1566182,22 L81.8322938,22 C81.4885655,22 81.2446292,21.915176 81.1004851,21.7576457 C80.9452529,21.5879977 80.8787249,21.321408 80.8787249,20.9578765 L80.8787249,6.62261973 L76.953569,6.62261973 C76.6098406,6.62261973 76.3659044,6.53779573 76.2217602,6.38026544 C76.0665281,6.21061743 76,5.9440277 76,5.58049625 L76,2.04212349 C76,1.67859204 76.0776161,1.39988459 76.2217602,1.2423543 C76.3769924,1.07270629 76.6209286,1 76.953569,1 L91.046431,1 C91.3790714,1 91.6340956,1.084824 91.7782398,1.2423543 C91.9334719,1.41200231 92,1.67859204 92,2.04212349 L92,5.56837853 C92,5.9440277 91.9223839,6.21061743 91.7782398,6.36814772 C91.6230076,6.53779573 91.3790714,6.61050202 91.046431,6.61050202 L87.1212751,6.61050202 L87.1212751,20.9336411 C87.1212751,21.3092902 87.043659,21.57588 86.8995149,21.7334103 C86.7331947,21.915176 86.4892585,22 86.1566182,22 Z" id="Shape"></path>
                <path d="M106.941555,22 L102.954997,22 C102.610754,22 102.366452,21.915127 102.222092,21.7575058 C102.066628,21.5877598 102,21.3210162 102,20.9572748 L102,2.04272517 C102,1.67898383 102.077732,1.40011547 102.222092,1.24249423 C102.377557,1.07274827 102.621859,1 102.954997,1 L107.263589,1 C107.552309,1 107.785506,1.07274827 107.974284,1.20612009 C108.163063,1.33949192 108.340736,1.56986143 108.496201,1.87297921 L110.905903,6.62586605 C110.99474,6.79561201 111.072472,6.92898383 111.127995,7.0017321 C111.194623,7.07448037 111.272355,7.12297921 111.383402,7.12297921 L111.627703,7.12297921 C111.738749,7.12297921 111.816482,7.08660508 111.883109,7.0017321 C111.949737,6.92898383 112.016365,6.79561201 112.105202,6.62586605 L114.48159,1.87297921 C114.637054,1.55773672 114.814728,1.33949192 115.003507,1.20612009 C115.192285,1.07274827 115.425482,1 115.714202,1 L120.045003,1 C120.378141,1 120.633548,1.08487298 120.777908,1.24249423 C120.933372,1.41224018 121,1.67898383 121,2.04272517 L121,20.9572748 C121,21.3331409 120.922268,21.5998845 120.777908,21.7575058 C120.622443,21.9272517 120.378141,22 120.045003,22 L115.92519,22 C115.580947,22 115.336645,21.915127 115.192285,21.7575058 C115.036821,21.5877598 114.970193,21.3210162 114.970193,20.9572748 L114.970193,10.6755196 L113.393337,13.852194 C113.237873,14.1795612 113.037989,14.4220554 112.815897,14.567552 C112.593805,14.7130485 112.316189,14.7857968 111.971946,14.7857968 L110.905903,14.7857968 C110.56166,14.7857968 110.284044,14.7130485 110.061952,14.567552 C109.83986,14.4220554 109.651081,14.1795612 109.484512,13.852194 L107.907656,10.6755196 L107.907656,20.9451501 C107.907656,21.3210162 107.829924,21.5877598 107.685564,21.7453811 C107.530099,21.915127 107.285798,22 106.941555,22 Z" id="Shape"></path>
                <path d="M138.999224,22 L126.000776,22 C125.640031,22 125.384019,21.915127 125.232739,21.7575058 C125.069822,21.5877598 125,21.3210162 125,20.9572748 L125,2.04272517 C125,1.67898383 125.081458,1.40011547 125.232739,1.24249423 C125.395656,1.07274827 125.651668,1 126.000776,1 L138.999224,1 C139.348332,1 139.615981,1.08487298 139.767261,1.24249423 C139.930178,1.41224018 140,1.67898383 140,2.04272517 L140,5.46189376 C140,5.83775982 139.918542,6.10450346 139.767261,6.26212471 C139.604344,6.43187067 139.348332,6.50461894 138.999224,6.50461894 L131.260667,6.50461894 L131.260667,8.74769053 L136.718386,8.74769053 C137.067494,8.74769053 137.335144,8.83256351 137.486424,8.99018476 C137.649341,9.15993072 137.719162,9.42667436 137.719162,9.7904157 L137.719162,12.9185912 C137.719162,13.2944573 137.637704,13.5612009 137.486424,13.7188222 C137.323507,13.8885681 137.067494,13.9613164 136.718386,13.9613164 L131.260667,13.9613164 L131.260667,16.4711316 L138.987587,16.4711316 C139.336695,16.4711316 139.604344,16.5560046 139.755625,16.7136259 C139.918542,16.8833718 139.988363,17.1501155 139.988363,17.5138568 L139.988363,20.9330254 C139.988363,21.3088915 139.906905,21.5756351 139.755625,21.7332564 C139.604344,21.915127 139.348332,22 138.999224,22 Z" id="Shape"></path>
                <path d="M148.933222,22 C148.596828,22 148.358097,21.915176 148.217028,21.7576457 C148.065109,21.5879977 148,21.321408 148,20.9578765 L148,17.49221 C148,17.1286786 148.07596,16.8499711 148.217028,16.6924409 C148.368948,16.5227928 148.607679,16.4500866 148.933222,16.4500866 L151.51586,16.4500866 L151.51586,6.62261973 L148.933222,6.62261973 C148.596828,6.62261973 148.358097,6.53779573 148.217028,6.38026544 C148.065109,6.21061743 148,5.9440277 148,5.58049625 L148,2.04212349 C148,1.67859204 148.07596,1.39988459 148.217028,1.2423543 C148.368948,1.07270629 148.607679,1 148.933222,1 L160.066778,1 C160.392321,1 160.641903,1.084824 160.782972,1.2423543 C160.934891,1.41200231 161,1.67859204 161,2.04212349 L161,5.56837853 C161,5.9440277 160.92404,6.21061743 160.782972,6.36814772 C160.631052,6.53779573 160.392321,6.61050202 160.066778,6.61050202 L157.527546,6.61050202 L157.527546,16.4137334 L160.066778,16.4137334 C160.392321,16.4137334 160.641903,16.4985574 160.782972,16.6560877 C160.934891,16.8257357 161,17.0923254 161,17.4558569 L161,20.9215234 C161,21.2971725 160.92404,21.5637623 160.782972,21.7212926 C160.631052,21.8909406 160.392321,21.9636469 160.066778,21.9636469 L148.933222,21.9636469 L148.933222,22 Z" id="Shape"></path>
                <path d="M170.137931,22 L165.988506,22 C165.632184,22 165.37931,21.915176 165.229885,21.7576457 C165.068966,21.5879977 165,21.321408 165,20.9578765 L165,2.0542412 C165,1.69070975 165.08046,1.41200231 165.229885,1.25447201 C165.390805,1.084824 165.643678,1.01211771 165.988506,1.01211771 L168.862069,1.01211771 C169.206897,1.01211771 169.517241,1.07270629 169.758621,1.18176572 C170.011494,1.30294287 170.252874,1.49682631 170.494253,1.79976919 L175.873563,8.25851125 L175.873563,2.04212349 C175.873563,1.67859204 175.954023,1.39988459 176.103448,1.2423543 C176.264368,1.07270629 176.517241,1 176.862069,1 L181.011494,1 C181.356322,1 181.62069,1.084824 181.770115,1.2423543 C181.931034,1.41200231 182,1.67859204 182,2.04212349 L182,20.9457588 C182,21.321408 181.91954,21.5879977 181.770115,21.745528 C181.609195,21.915176 181.356322,21.9878823 181.011494,21.9878823 L176.862069,21.9878823 C176.505747,21.9878823 176.252874,21.9030583 176.103448,21.745528 C175.942529,21.57588 175.873563,21.3092902 175.873563,20.9457588 L175.873563,17.3589152 L171.137931,11.3242931 L171.137931,20.9457588 C171.137931,21.321408 171.057471,21.5879977 170.908046,21.745528 C170.747126,21.915176 170.494253,22 170.137931,22 Z" id="Shape"></path>
            </g>
        </g>
    </g>
</svg>