<?xml version="1.0" encoding="UTF-8"?>
<svg width="232px" height="213px" viewBox="0 0 232 213" version="1.1" xmlns="http://www.w3.org/2000/svg" xmlns:xlink="http://www.w3.org/1999/xlink">
    <!-- Generator: Sketch 51.3 (57544) - http://www.bohemiancoding.com/sketch -->
    <title>gbf-logo_white-06</title>
    <desc>Created with Sketch.</desc>
    <defs></defs>
    <g id="Page-1" stroke="none" stroke-width="1" fill="none" fill-rule="evenodd">
        <g id="Desktop-HD" transform="translate(-604.000000, -2346.000000)" fill="#FFFFFF" fill-rule="nonzero">
            <g id="gbf-logo_white-06" transform="translate(604.000000, 2346.000000)">
                <path d="M0,193 L0,157 L11.5258893,157 C16.0406385,157 19.4930938,158.106881 21.644239,160.584187 C23.0783359,162.24451 23.7953843,164.379209 23.7953843,166.830161 C23.7953843,169.122987 23.1314505,171.204978 21.8035831,172.891654 C24.5655474,175 26.0262015,178.030747 25.9996442,181.641288 C25.9996442,185.199122 24.8842356,188.098097 22.5737462,189.969253 C19.9711261,192.077599 16.0671958,193 10.9416276,193 L0,193 Z M7.62195902,185.831625 L10.9150702,185.831625 C13.7832639,185.831625 15.8016224,185.409956 16.837359,184.751098 C17.8465382,184.09224 18.3245705,183.222548 18.3511278,181.614934 C18.3245705,179.928258 17.7403088,178.874085 16.4124414,177.951684 C15.3235901,177.240117 13.9691653,176.844802 12.269495,176.792094 L7.62195902,176.792094 L7.62195902,185.831625 Z M7.62195902,169.597365 L12.800642,169.597365 C14.1550668,169.597365 14.9517872,169.228404 15.4829342,168.648609 C15.9078518,168.174231 16.1203105,167.620791 16.1203105,166.803807 C16.0937532,165.855051 15.8281797,165.380673 15.164246,164.93265 C14.5003123,164.484627 13.2521169,164.194729 11.4727746,164.194729 L7.62195902,164.194729 L7.62195902,169.597365 Z" id="Shape"></path>
                <polygon id="Shape" points="55 193 55 157 62.4448768 157 62.4448768 185.831625 75 185.831625 75 191.972182 75 193"></polygon>
                <polygon id="Shape" points="100.467306 193 100.467306 178.795022 85.532694 178.795022 85.532694 193 78 193 78 157 85.532694 157 85.532694 171.626647 100.467306 171.626647 100.467306 157 108 157 108 191.972182 108 193"></polygon>
                <path d="M145.571865,190.31854 L146,191.324982 L138.801988,194 L135.590979,186.637079 L121.382263,186.637079 L118.278287,194 L111,191.272011 L125.850917,157 L131.202599,157 L145.571865,190.31854 Z M124.165138,180.17466 L132.808104,180.17466 L128.5,170.004295 L124.165138,180.17466 Z" id="Shape"></path>
                <polygon id="Shape" points="171.967474 158.059957 173 158.429693 158.094554 193 152.905446 193 138 158.429693 145.04236 156 155.473525 180.112063 166.01059 156"></polygon>
                <polygon id="Shape" points="226.236842 193 209.578947 171.595308 209.578947 193 202 193 202 157 207.763158 157 224.447368 178.457478 224.447368 157 232 157 232 191.970674 232 193"></polygon>
                <path d="M7.97419355,211.544622 C6.91612903,212.7254 5.67741935,213 4.56774194,213 C2.06451613,213 0,210.308924 0,207.01373 C0,203.691076 2.06451613,201 4.56774194,201 C5.6516129,201 6.65806452,201.494279 7.79354839,202.675057 L6.83870968,203.965675 C6.01290323,203.114416 5.31612903,202.729977 4.56774194,202.729977 C2.81290323,202.729977 1.41935484,204.652174 1.41935484,206.98627 C1.41935484,209.320366 2.81290323,211.242563 4.56774194,211.242563 C5.23870968,211.242563 5.98709677,211.160183 6.55483871,210.748284 L6.58064516,208.578947 L4.77419355,208.578947 L4.77419355,206.84897 L8,206.84897 L7.97419355,211.544622 Z" id="Shape"></path>
                <path d="M15.9205021,212 L13.4351464,208.147465 C13.1087866,208.172811 12.707113,208.172811 12.3807531,208.172811 L12.3807531,211.670507 L11,211.670507 L11,201 L13.8870293,201 C15.8451883,201 17,202.976959 17,204.370968 C17,206.145161 16.2468619,207.387097 14.9665272,207.894009 L17,211.011521 L15.9205021,212 Z M13.8870293,202.596774 L12.3807531,202.596774 L12.3807531,206.576037 C12.8828452,206.576037 13.5104603,206.576037 13.8368201,206.550691 C14.9665272,206.474654 15.6443515,205.663594 15.6443515,204.370968 C15.6192469,203.635945 14.9665272,202.596774 13.8870293,202.596774 Z" id="Shape"></path>
                <polygon id="Shape" points="20 212 20 201 25 201 25 202.646081 21.3636364 202.646081 21.3636364 205.389549 24.3686869 205.389549 24.3686869 207.061758 21.3636364 207.061758 21.3636364 210.327791 25 210.327791 25 212"></polygon>
                <path d="M33.7047619,212 L32.9428571,209.764019 L29.0571429,209.764019 L28.3206349,212 L27,211.357477 L30.5047619,201 L31.4952381,201 L35,211.357477 L33.7047619,212 Z M30.9873016,203.981308 L29.5142857,208.376168 L32.4349206,208.376168 L30.9873016,203.981308 Z" id="Shape"></path>
                <polygon id="Shape" points="39.1707317 202.668246 39.1707317 212 37.8292683 212 37.8292683 202.668246 36 202.668246 36 201 41 201 41 202.668246"></polygon>
                <polygon id="Shape" points="44 212 44 201 49 201 49 202.646081 45.3888889 202.646081 45.3888889 205.389549 48.3939394 205.389549 48.3939394 207.061758 45.3888889 207.061758 45.3888889 210.327791 49 210.327791 49 212"></polygon>
                <path d="M56.9205021,212 L54.4351464,208.147465 C54.1087866,208.172811 53.707113,208.172811 53.3807531,208.172811 L53.3807531,211.670507 L52,211.670507 L52,201 L54.8870293,201 C56.8451883,201 58,202.976959 58,204.370968 C58,206.145161 57.2468619,207.387097 55.9665272,207.894009 L58,211.011521 L56.9205021,212 Z M54.8870293,202.596774 L53.3807531,202.596774 L53.3807531,206.576037 C53.8828452,206.576037 54.5104603,206.576037 54.8368201,206.550691 C55.9665272,206.474654 56.6443515,205.663594 56.6443515,204.370968 C56.6192469,203.635945 55.9665272,202.596774 54.8870293,202.596774 Z" id="Shape"></path>
                <path d="M69.4661017,212 L67,212 L67,201 L69.6186441,201 C72.1101695,201 72.440678,202.855107 72.440678,203.847981 C72.440678,204.501188 72.2627119,205.285036 71.8050847,205.885986 C72.4915254,206.434679 73,207.32304 73,208.655582 C73,210.693587 72.1101695,212 69.4661017,212 M69.6186441,202.646081 L68.3983051,202.646081 L68.3983051,205.07601 L69.9491525,205.07601 C70.8135593,205.07601 71.0423729,204.370546 71.0423729,203.847981 C71.0423729,203.351544 70.8135593,202.646081 69.6186441,202.646081 M69.8220339,206.748219 C69.440678,206.72209 68.8559322,206.748219 68.3983051,206.748219 L68.3983051,210.327791 L69.4661017,210.327791 C70.9661017,210.327791 71.6016949,209.805226 71.6016949,208.629454 C71.6016949,207.218527 70.5847458,206.774347 69.8220339,206.748219" id="Shape"></path>
                <polygon id="Shape" points="75 212 75 201 80 201 80 202.646081 76.3888889 202.646081 76.3888889 205.389549 79.3939394 205.389549 79.3939394 207.061758 76.3888889 207.061758 76.3888889 210.327791 80 210.327791 80 212"></polygon>
                <polygon id="Shape" points="83 212 83 201 84.3636364 201 84.3636364 210.331754 88 210.331754 88 212"></polygon>
                <polygon id="Shape" points="96.625 212 96.625 207.386256 92.375 207.386256 92.375 212 91 212 91 201 92.375 201 92.375 205.744076 96.625 205.744076 96.625 201 98 201 98 212"></polygon>
                <path d="M106.704762,212 L105.942857,209.764019 L102.057143,209.764019 L101.320635,212 L100,211.357477 L103.504762,201 L104.495238,201 L108,211.357477 L106.704762,212 Z M104.012698,203.981308 L102.539683,208.376168 L105.460317,208.376168 L104.012698,203.981308 Z" id="Shape"></path>
                <polygon id="Shape" points="113.477987 212 112.522013 212 109 201.562791 110.257862 201 113 209.05814 115.767296 201 117 201.562791"></polygon>
                <polygon id="Shape" points="120 212 120 201 125 201 125 202.646081 121.363636 202.646081 121.363636 205.389549 124.368687 205.389549 124.368687 207.061758 121.363636 207.061758 121.363636 210.327791 125 210.327791 125 212"></polygon>
                <polygon id="Shape" points="132.942446 212 128.384892 204.448931 128.384892 212 127 212 127 201 128.057554 201 132.615108 208.603325 132.615108 201 134 201 134 212"></polygon>
                <polygon id="Shape" points="144.363636 202.646081 144.363636 205.441805 147.368687 205.441805 147.368687 207.114014 144.363636 207.114014 144.363636 212 143 212 143 201 148 201 148 202.646081"></polygon>
                <path d="M154.5,213 C152.033898,213 150,210.308924 150,207.01373 C150,203.691076 152.033898,201 154.5,201 C156.966102,201 159,203.691076 159,207.01373 C159,210.336384 156.966102,213 154.5,213 M154.5,202.757437 C152.771186,202.757437 151.398305,204.679634 151.398305,207.01373 C151.398305,209.347826 152.771186,211.270023 154.5,211.270023 C156.228814,211.270023 157.601695,209.347826 157.601695,207.01373 C157.601695,204.679634 156.20339,202.757437 154.5,202.757437" id="Shape"></path>
                <path d="M165.513944,212 C163.366534,212 162,210.337209 162,208.316279 L162,201 L163.533865,201 L163.533865,208.316279 C163.533865,209.44186 164.286853,210.388372 165.513944,210.388372 C166.713147,210.388372 167.466135,209.44186 167.466135,208.316279 L167.466135,201 L169,201 L169,208.316279 C169,210.362791 167.689243,212 165.513944,212" id="Shape"></path>
                <polygon id="Shape" points="177.942446 212 173.384892 204.422803 173.384892 212 172 212 172 201 173.057554 201 177.615108 208.577197 177.615108 201 179 201 179 212"></polygon>
                <path d="M185.066202,212 L182,212 L182,201 C182,201 183.783972,201 185.038328,201 C187.797909,201.026128 190,203.482185 190,206.617577 C190,209.805226 187.770035,212 185.066202,212 M185.038328,202.672209 C184.452962,202.646081 183.95122,202.672209 183.533101,202.672209 L183.533101,210.380048 L185.066202,210.380048 C186.961672,210.380048 188.466899,208.83848 188.466899,206.643705 C188.466899,204.422803 186.961672,202.698337 185.038328,202.672209" id="Shape"></path>
                <path d="M197.679365,212 L196.91746,209.764019 L193.057143,209.764019 L192.320635,212 L191,211.357477 L194.504762,201 L195.495238,201 L199,211.357477 L197.679365,212 Z M194.987302,203.981308 L193.514286,208.376168 L196.434921,208.376168 L194.987302,203.981308 Z" id="Shape"></path>
                <polygon id="Shape" points="203.170732 202.672209 203.170732 212 201.853659 212 201.853659 202.672209 200 202.672209 200 201 205 201 205 202.672209"></polygon>
                <polygon id="Shape" points="209 212 209 201.026066 210 201 210 211.973934"></polygon>
                <path d="M217.5,213 C215.033898,213 213,210.308924 213,207.01373 C213,203.691076 215.033898,201 217.5,201 C219.966102,201 222,203.691076 222,207.01373 C222,210.336384 219.991525,213 217.5,213 M217.5,202.757437 C215.771186,202.757437 214.398305,204.679634 214.398305,207.01373 C214.398305,209.347826 215.771186,211.270023 217.5,211.270023 C219.228814,211.270023 220.601695,209.347826 220.601695,207.01373 C220.601695,204.679634 219.228814,202.757437 217.5,202.757437" id="Shape"></path>
                <polygon id="Shape" points="230.942446 212 226.384892 204.422803 226.384892 212 225 212 225 201 226.057554 201 230.615108 208.577197 230.615108 201 232 201 232 212"></polygon>
                <polygon id="Shape" points="52 185.8 52 193 28 193 28 157 51.7060134 157 51.7060134 164.226471 35.8040089 164.226471 35.8040089 171.532353 47.8841871 171.532353 47.8841871 178.441176 35.8040089 178.441176 35.8040089 185.8"></polygon>
                <polygon id="Shape" points="199 185.773529 199 193 175 193 175 157 198.679644 157 198.679644 164.226471 182.822024 164.226471 182.822024 171.532353 194.862069 171.532353 194.862069 178.414706 182.822024 178.414706 182.822024 185.773529"></polygon>
                <path d="M71.008,46.4642857 C70.336,45.4196429 70,44.0803571 70,42.6875 C70,41.2946429 70.336,39.8482143 70.984,38.5625 L71.272,38 L71.68,38.4553571 C71.728,38.5089286 73,39.9285714 73,42.3125 C73,43.5178571 72.664,44.9107143 71.728,46.4375 L71.392,47 L71.008,46.4642857 Z" id="Shape"></path>
                <path d="M87.016129,14.4642857 C86.3387097,13.4196429 86,12.0803571 86,10.6875 C86,9.29464286 86.3387097,7.84821429 86.9919355,6.5625 L87.2580645,6 L87.6693548,6.45535714 C87.6935484,6.50892857 89,7.92857143 89,10.3125 C89,11.5178571 88.6612903,12.9107143 87.7177419,14.4375 L87.3790323,15 L87.016129,14.4642857 Z" id="Shape"></path>
                <path d="M98.4054054,30.1315789 L98,29 L99.0810811,29.5789474 C102.648649,31.5 109.918919,34.8684211 110.945946,39.3421053 C110.945946,39.3684211 111,39.6578947 111,40.0263158 C111,40.3684211 110.972973,40.8157895 110.756757,41.2105263 C110.567568,41.6052632 110.108108,42 109.486486,42 L109.432432,42 C108.540541,41.9736842 107.432432,41.4473684 105.72973,40.0526316 C100.378378,35.6052632 98.4324324,30.1578947 98.4054054,30.1315789" id="Shape"></path>
                <path d="M150.596273,66.8639377 L151,68 L149.89648,67.4187588 C146.343685,65.490095 139.076605,62.1347483 138.05383,57.6697593 C138.05383,57.6433393 138,57.3527187 138,56.9564179 C138,56.6129572 138.026915,56.1638163 138.242236,55.7675155 C138.430642,55.3447947 138.915114,54.974914 139.534161,55.001334 C140.42236,55.0277541 141.52588,55.5561551 143.248447,56.9564179 C148.604555,61.3685667 150.569358,66.8375177 150.596273,66.8639377" id="Shape"></path>
                <path d="M130.102564,31.9050445 C130.410256,28.3264095 132.948718,27.4451039 134.641026,24.8545994 L135.205128,24 L135.461538,25.0148368 C135.461538,25.041543 135.717949,26.1632047 136,28.6468843 L136,28.9139466 C135.974359,30.4094955 134.692308,31.0504451 133.564103,31.4510386 C132.410256,31.8249258 131.128205,32.0919881 130.820513,32.3590504 L130,33 L130.102564,31.9050445 Z" id="Shape"></path>
                <path d="M78.1282051,65.9285714 C78.4358974,62.3392857 80.974359,61.4553571 82.6666667,58.8571429 L83.2307692,58 L83.4615385,59.0178571 C83.4615385,59.0446429 83.7435897,60.1696429 84,62.6607143 L84,62.9017857 C83.974359,64.4017857 82.6923077,65.0446429 81.5641026,65.4464286 C80.4102564,65.8214286 79.1282051,66.0892857 78.8205128,66.3571429 L78,67 L78.1282051,65.9285714 Z" id="Shape"></path>
                <path d="M105.076923,28.9285714 C105.384615,25.3392857 107.923077,24.4553571 109.615385,21.8571429 L110.205128,21 L110.435897,22.0178571 C110.435897,22.0446429 110.717949,23.1696429 110.974359,25.6607143 L111,25.9017857 C110.974359,27.4017857 109.692308,28.0446429 108.564103,28.4464286 C107.410256,28.8214286 106.128205,29.0892857 105.820513,29.3571429 L105,30 L105.076923,28.9285714 Z" id="Shape"></path>
                <path d="M122.103004,74.9285714 C122.412017,71.3392857 124.961373,70.4553571 126.660944,67.8571429 L127.227468,67 L127.459227,68.0178571 C127.459227,68.0446429 127.742489,69.1696429 128,71.6607143 L128,71.9285714 C127.974249,73.4285714 126.712446,74.0714286 125.579399,74.4464286 C124.420601,74.8214286 123.133047,75.0892857 122.824034,75.3571429 L122,76 L122.103004,74.9285714 Z" id="Shape"></path>
                <path d="M98,56.4112989 L98.0257732,56.1760164 C98.0773196,55.6531665 98.1030928,55.1826016 98.1030928,54.6858941 C98.1030928,52.7774918 98.128866,51.418082 98.128866,48.5946923 L98.1030928,47 C98.3092784,47.31371 102.072165,54.3460417 102.896907,56.8557214 C102.948454,57.0648613 103,57.2740013 103,57.4831413 C103,57.9798487 102.742268,58.4242712 102.381443,58.6595537 C102.020619,58.8948361 101.582474,58.9994061 101.118557,58.9994061 C99.7525773,59.0255486 98.0515464,58.1889887 98,56.4112989" id="Shape"></path>
                <path d="M120.931034,9 C119.677116,8.89859155 119.025078,7.50422535 119,6.23661972 C119,5.34929577 119.401254,4.36056338 120.404389,3.92957746 C122.68652,2.96619718 124.015674,1.64788732 127,0 C127,0 123.789969,6.56619718 122.059561,8.44225352 C121.733542,8.7971831 121.357367,9 120.931034,9 Z" id="Shape"></path>
                <path d="M91,23.4194313 L91.0259067,23.1848341 C91.0777202,22.6635071 91.1036269,22.1943128 91.1036269,21.6990521 C91.1036269,19.7962085 91.6217617,15 91.6217617,15 C91.6217617,15.0260664 95.0673575,21.3862559 95.8963731,23.8625592 C95.9740933,24.07109 96,24.2796209 96,24.4881517 C96,24.9834123 95.7409326,25.4265403 95.3782383,25.6611374 C95.015544,25.8957346 94.5751295,26 94.1088083,26 C92.761658,26 91.0518135,25.1658768 91,23.4194313" id="Shape"></path>
                <path d="M88.0814815,34.193858 C88.0222222,34.1401152 86.7777778,32.9846449 85.5333333,29.8944338 C85.1777778,28.9808061 85,28.1209213 85,27.3147793 C85,25.2994242 86.0074074,23.6333973 87.1037037,22.0479846 L87.8444444,21 L88.0814815,22.2360845 C88.0814815,22.2629559 89,26.8848369 89,28.6314779 L89,33.8445298 L89,35 L88.0814815,34.193858 Z" id="Shape"></path>
                <path d="M132.709922,50.558 C132.709922,50.558 131.79187,49.336 130.799382,47.828 C130.303137,47.074 129.806893,46.242 129.385086,45.436 C128.690344,44.058 129.062527,42.706 129.509147,41.484 C129.980579,40.262 130.526447,39.092 130.476823,38 C130.476823,38 133.131729,42.966 134.496401,45.072 C136.109195,47.75 133.330227,50.584 133.355039,50.61 L133.007668,51 L132.709922,50.558 Z" id="Shape"></path>
                <path d="M108.602339,57.4533623 C108.573099,57.4273319 106.409357,55.5531453 106.05848,53.1843818 C106.02924,52.9761388 106,52.7678959 106,52.5596529 C106,50.4511931 107.461988,48.681128 108.807018,46.7548807 L109.333333,46 L109.71345,46.8329718 C109.71345,46.8590022 110.97076,49.4880694 111,51.3362256 C111,51.5184382 111,51.7006508 110.94152,51.8828633 C110.619883,53.5227766 109.450292,57.2451193 109.450292,57.2451193 L109.216374,58 L108.602339,57.4533623 Z" id="Shape"></path>
                <path d="M90.6023392,50.4533623 C90.5730994,50.4273319 88.4093567,48.5531453 88.0584795,46.1843818 C88.0292398,45.9761388 88,45.7678959 88,45.5596529 C88,43.4511931 89.4619883,41.681128 90.8070175,39.7548807 L91.3333333,39 L91.7134503,39.8329718 C91.7134503,39.8590022 92.9707602,42.4880694 93,44.3362256 C93,44.5184382 93,44.7266811 92.9415205,44.8828633 C92.619883,46.5227766 91.4502924,50.2451193 91.4210526,50.2451193 L91.1871345,51 L90.6023392,50.4533623 Z" id="Shape"></path>
                <path d="M115.602339,45.4285714 C115.573099,45.4025974 113.409357,43.5324675 113.05848,41.1688312 C113.02924,40.961039 113,40.7532468 113,40.5454545 C113,38.4415584 114.461988,36.6753247 115.807018,34.7532468 L116.333333,34 L116.71345,34.8311688 C116.71345,34.8571429 117.97076,37.4805195 118,39.3246753 C118,39.5064935 118,39.6883117 117.94152,39.8701299 C117.619883,41.5324675 116.450292,45.2207792 116.421053,45.2467532 L116.187135,46 L115.602339,45.4285714 Z" id="Shape"></path>
                <path d="M124.094118,33.4285714 C124.070588,33.4025974 122.329412,31.5324675 122.047059,29.1688312 C122.023529,28.961039 122,28.7532468 122,28.5454545 C122,26.4415584 123.176471,24.6753247 124.258824,22.7532468 L124.682353,22 L124.988235,22.8311688 C124.988235,22.8571429 126,25.4545455 126,27.3246753 C126,27.5064935 126,27.7142857 125.976471,27.8701299 C125.717647,29.5064935 124.752941,33.2207792 124.752941,33.2467532 L124.564706,34 L124.094118,33.4285714 Z" id="Shape"></path>
                <path d="M73.1672862,62.7297297 C73.1412639,62.7027027 70.0446097,61.9459459 69.6282528,59.2972973 C69.5241636,58.3243243 68.8475836,56.5675676 68.2230483,55.1621622 C67.598513,53.7297297 67,52.5675676 67,52.5675676 L67.4163569,52.3513514 L67,52.5675676 L67.7286245,52 C68.4572491,52.7567568 69.6282528,53.4594595 70.669145,54.1891892 C71.6840149,54.9189189 72.6468401,55.7567568 72.6728625,57.027027 C72.6728625,58.8108108 73.7137546,62.1081081 73.7137546,62.1351351 L74,63 L73.1672862,62.7297297 Z" id="Shape"></path>
                <path d="M117.320312,30.1962963 C117.296875,30.1703704 115.328125,28.0444444 115.046875,25.6851852 C115.023437,25.4259259 115,25.1666667 115,24.9074074 C115.023438,22.6 115.890625,19.4888889 117.039062,17.9074074 L117.71875,17 L117.765625,18.1925926 C117.765625,18.1925926 118,24.0259259 118,25.3740741 L118,29.8851852 L118,31 L117.320312,30.1962963 Z" id="Shape"></path>
                <path d="M107.028571,18.453125 C107.057143,17.3046875 108.028571,16.15625 109.085714,15.0078125 C110.171429,13.8867188 111.428571,12.9023438 112.228571,12.4375 L113,12 L113,12.875 C113,12.9296875 113,14.953125 111.742857,16.7851562 C110.371429,18.6992188 107.628571,18.9453125 107.571429,18.9453125 L107,19 L107,18.453125 L107.028571,18.453125 Z" id="Shape"></path>
                <path d="M75.0285714,52.4784314 C75.0571429,51.3254902 76.0285714,50.172549 77.0857143,49.0196078 C78.1714286,47.8941176 79.4285714,46.9058824 80.2285714,46.4392157 L81,46 L81,46.8509804 C81,46.9058824 81,48.9372549 79.7428571,50.7764706 C78.3428571,52.6980392 75.6285714,52.9176471 75.5714286,52.945098 L75,53 L75,52.4784314 L75.0285714,52.4784314 Z" id="Shape"></path>
                <path d="M135.028571,38.4784314 C135.057143,37.3254902 136.028571,36.172549 137.085714,35.0196078 C138.171429,33.8941176 139.428571,32.9058824 140.228571,32.4392157 L141,32 L141,32.8509804 C141,32.9058824 141,34.9372549 139.742857,36.7764706 C138.371429,38.6980392 135.628571,38.9176471 135.571429,38.945098 L135,39 L135,38.4784314 L135.028571,38.4784314 Z" id="Shape"></path>
                <path d="M155,39.2783505 C155,39.2783505 155.198347,36.1340206 155.198347,33.1958763 C155.22314,30.6958763 157.305785,26.4948454 158.322314,25.3350515 C158.495868,25.1804124 158.570248,25.0257732 158.892562,25 C159.066116,25 159.239669,25.128866 159.289256,25.257732 C159.338843,25.3865979 159.363636,25.4896907 159.363636,25.5927835 C159.363636,27.8092784 160.975207,32.8092784 161,34.2268041 C160.975207,34.7938144 160.578512,35.2319588 160.082645,35.7989691 C159.561983,36.3402062 158.892562,36.9587629 158.247934,37.5 C156.909091,38.6082474 155.595041,39.5618557 155.595041,39.5618557 L155,40 L155,39.2783505 Z" id="Shape"></path>
                <path d="M125.945055,12.039801 C125.972527,12.2587065 126,12.5049751 126,12.7238806 C125.945055,16.4179104 121.906593,21.0422886 121.906593,21.0970149 L121.137363,22 L121.027473,20.8233831 C121,20.659204 121,20.4950249 121,20.3034826 C121,17.4577114 122.428571,13.8457711 123.637363,12.0945274 C124.076923,11.5199005 124.379121,11.0820896 125.038462,11 C125.642857,11.0547264 125.89011,11.5746269 125.945055,12.039801" id="Shape"></path>
                <path d="M126.976476,37.1510996 C126.95005,37.3569724 126.923624,37.5628452 126.844346,37.7944521 C125.866582,41.1141509 120.924912,44.3309134 120.924912,44.3823816 L120,45 L120.211408,43.9191678 C120.237834,43.7647632 120.290686,43.6103586 120.317113,43.455954 C121.057042,40.882544 123.27683,37.9488567 124.835966,36.6621517 C125.390913,36.2504061 125.787304,35.9158628 126.421529,36.0187992 C126.95005,36.1732038 127.055754,36.7136199 126.976476,37.1510996" id="Shape"></path>
                <path d="M145.348993,33.8369231 C145.885906,32.0646154 147.201342,30.1815385 148.543624,28.6584615 C149.939597,27.1630769 151.147651,26.0830769 152.167785,26 C152.355705,26 152.624161,26.0830769 152.785235,26.2769231 C152.946309,26.4707692 153,26.72 153,26.9138462 C153,27.0523077 152.973154,27.1907692 152.946309,27.3292308 C152.087248,31.1230769 146.073826,34.3353846 146.04698,34.4184615 L145,35 L145.348993,33.8369231 Z" id="Shape"></path>
                <path d="M144.946309,45.3292308 C144.087248,49.1230769 138.04698,52.3353846 138.04698,52.4184615 L137,53 L137.348993,51.8369231 C137.885906,50.0646154 139.201342,48.1815385 140.543624,46.6584615 C141.939597,45.1630769 143.147651,44.0830769 144.167785,44 C144.355705,44 144.624161,44.0830769 144.785235,44.2769231 C144.946309,44.4707692 145,44.72 145,44.9138462 C145,45.0246154 144.973154,45.1630769 144.946309,45.3292308" id="Shape"></path>
                <path d="M101.035928,9.51458333 C102.520958,12.3583333 103,14.6875 103,16.55625 C103,20.05 101.227545,21.7291667 101.179641,21.75625 L100.94012,22 L100.676647,21.7833333 C99.3113772,20.61875 99.0239521,17.69375 99,14.93125 C99,12.7645833 99.239521,10.7604167 99.6227545,9.73125 C99.7664671,9.40625 99.9101796,9.05416667 100.389222,9 C100.724551,9 100.892216,9.27083333 101.035928,9.51458333" id="Shape"></path>
                <path d="M89.6216216,60.6276596 C87.7837838,60.1755319 86.7297297,58.8457447 86.1621622,57.2234043 C85.5945946,55.6276596 85.3783784,53.6861702 85.1081081,51.7978723 L85,51 L85.7567568,51.2925532 C85.7837838,51.3191489 90.7297297,53.1276596 92.3243243,55.2553191 C93.7027027,57.1702128 95.6486486,59.8829787 95.6486486,59.8829787 L96,60.3882979 L95.4324324,60.6010638 C95.3783784,60.6276596 94.3513514,61 92.6486486,61 C91.7837838,61 90.7567568,60.893617 89.6216216,60.6276596" id="Shape"></path>
                <path d="M77.7363358,27.2092536 C76.8617382,26.2118676 75.7041827,25.0610377 74.598074,24.4728357 C71.9742814,22.9895438 72.0000048,19.920664 72.0000048,19.89509 L72,19 L72.7202616,19.51148 C74.0836049,20.4832919 75.1382666,20.6111619 76.1414814,20.8669019 C77.1704197,21.1226419 78.1479111,21.7108439 78.6623802,23.3731538 C79.717042,26.5443296 80,28.6669715 80,28.6925455 L79.1768494,28.9994335 C79.1768494,29.0250075 78.5852099,28.1810655 77.7363358,27.2092536" id="Shape"></path>
                <path d="M151.36338,61 L150,60.6571429 L151.281577,60.0571429 C153.163041,59.2 154.171943,58 156.326083,58 C156.898703,58 157.525857,58.0857143 158.28935,58.2857143 C161.861406,59.2 162.025011,61.8857143 161.997744,62 L161.997744,62.3142857 L161.725068,62.4571429 C161.6978,62.4857143 160.688899,63 159.270984,63 C158.807434,63 158.28935,62.9428571 157.743998,62.7714286 C155.835266,62.1714286 151.390648,61.0285714 151.36338,61" id="Shape"></path>
                <path d="M83.3633561,69.0285714 L82,68.6571429 L83.2815547,68.0571429 C85.1629861,67.2 86.1718696,66 88.3259722,66 C88.8985817,66 89.5257255,66.0857143 90.2892049,66.2857143 C93.888465,67.2 94.0248006,69.8857143 93.9975334,70 L93.9975334,70.3142857 L93.7248622,70.4571429 C93.6975951,70.4857143 92.6887116,71 91.2708213,71 C90.8072802,71 90.2892049,70.9428571 89.7438625,70.7714286 C87.835164,70.2 83.3633561,69.0285714 83.3633561,69.0285714" id="Shape"></path>
                <path d="M131.313126,7.53110048 L130,7.18660287 L131.234338,6.58373206 C133.519177,5.49282297 134.727253,4 137.274717,4 C137.957543,4 138.719155,4.11483254 139.612081,4.34449761 C143.866609,5.49282297 144.024184,8.76555024 143.997921,8.88038278 L143.997921,9.19617225 L143.735296,9.33971292 C143.682771,9.36842105 142.500958,10 140.846419,10 C140.294906,10 139.664606,9.9138756 139.034306,9.74162679 C136.696942,8.99521531 131.339388,7.53110048 131.313126,7.53110048" id="Shape"></path>
                <path d="M129.33,21.9354839 C130.2375,18.7165899 132.7125,14.8133641 134.9125,13.6221198 C136.9475,12.5576037 138.405,12.2788018 138.4325,12.2788018 L140,12 L138.845,13.0645161 C138.845,13.0645161 138.5975,13.2926267 138.1575,13.875576 C137.7175,14.4585253 137.085,15.421659 136.3975,16.8156682 C134.8575,19.8824885 130.045,22.4170507 130.0175,22.4677419 L129,23 L129.33,21.9354839 Z" id="Shape"></path>
                <path d="M142.109415,75.6017699 C142.109415,75.6017699 140.582697,74.8318584 139.05598,73.7168142 C137.554707,72.5752212 135.926209,71.1946903 135.875318,69.4690265 C135.875318,66.840708 135.111959,63.9734513 133.407125,62.1946903 C133.305344,62.0884956 133.229008,62.0088496 133.178117,61.9292035 C133.127226,61.8230088 133.050891,61.8495575 133,61.5044248 C133,61.4247788 133.025445,61.2654867 133.152672,61.1327434 C133.279898,61.0265487 133.407125,61 133.483461,61 C133.839695,61.0530973 133.86514,61.1327434 134.119593,61.2920354 C134.323155,61.4513274 134.628499,61.6371681 134.933842,61.9026549 C135.59542,62.4070796 136.409669,63.0707965 137.249364,63.8141593 C138.928753,65.3274336 140.557252,66.840708 140.913486,67.9557522 C141.447837,69.8672566 142.745547,75.0176991 142.745547,75.0176991 L143,76 L142.109415,75.6017699 Z" id="Shape"></path>
                <path d="M155.086294,53.5486726 C155.060914,53.5486726 153.563452,52.7787611 152.040609,51.6902655 C150.517766,50.5486726 148.918782,49.1681416 148.86802,47.4424779 C148.86802,44.8141593 148.106599,41.9469027 146.406091,40.1681416 L146.532995,40.0353982 L146.406091,40.1681416 C146.304569,40.0619469 146.228426,39.9823009 146.177665,39.9026549 C146.126904,39.7964602 146.050761,39.8230088 146,39.4778761 C146,39.3716814 146.025381,39.2123894 146.177665,39.1061947 C146.304569,39 146.406091,39 146.482234,39 C146.837563,39.0530973 146.862944,39.1327434 147.116751,39.2920354 C147.345178,39.4247788 147.624365,39.6371681 147.954315,39.9026549 C148.588832,40.4070796 149.426396,41.0707965 150.263959,41.8141593 C151.939086,43.300885 153.588832,44.840708 153.918782,45.9557522 C154.451777,47.8672566 155.746193,53.0176991 155.746193,53.0176991 L156,54 L155.086294,53.5486726 Z" id="Shape"></path>
                <path d="M114.29588,8.75 C114.29588,8.75 108.632959,7.88888889 107.11236,7.88888889 C106.011236,7.86111111 104.962547,6.91666667 104.044944,6.05555556 C103.153558,5.16666667 102.47191,4.30555556 102.445693,4.30555556 L102,3.75 L102.655431,3.52777778 C102.681648,3.52777778 104.149813,3 106.037453,3 C107.58427,3 109.419476,3.36111111 110.88764,4.75 L116,9 L114.29588,8.75 Z" id="Shape"></path>
                <path d="M93.234375,33.6756757 L93,32 L94.0416667,33.2972973 C96.2291667,36.1891892 99.6927083,35.8378378 101.28125,38.9189189 C102.661458,41.7567568 102.921875,44.2972973 102.921875,44.3243243 L103,45 L102.375,44.8378378 C102.322917,44.7837838 96.8020833,43.6216216 95.1875,40.7837838 C93.8072917,38.1891892 93.234375,33.7027027 93.234375,33.6756757" id="Shape"></path>
                <path d="M98.0255102,73.3157895 C98.0765306,73.2610526 98.0255102,67.3221053 100.295918,65.1052632 C102.438776,63.1073684 106.469388,61.6021053 106.494898,61.5747368 L108,61 L107.005102,62.3410526 C105.908163,63.7915789 105.576531,65.3515789 105.244898,66.8568421 C104.913265,68.3621053 104.556122,69.8673684 103.280612,70.9621053 C100.933673,72.96 98.6377551,73.7810526 98.6122449,73.7810526 L98,74 L98.0255102,73.3157895 Z" id="Shape"></path>
                <path d="M79.9279835,38.9166667 C79.1790123,37.75 77.654321,36.5555556 76.3168724,35.6944444 C74.9794239,34.8333333 73,33 73,33 C74.4979424,33.5277778 77.3600823,33.6666667 78.9917695,33.7777778 C80.6234568,33.8611111 82.308642,34.3888889 83.4588477,36.3888889 L85.6522634,40.0833333 L86,40.6666667 L85.3580247,40.8333333 C85.3312757,40.8333333 84.7695473,40.9722222 83.9938272,41 L83.9670782,41 C82.7901235,40.9722222 81.0246914,40.6388889 79.9279835,38.9166667" id="Shape"></path>
                <path d="M140.176471,25.0305206 C140.932773,20.3716338 141.991597,16.3052065 145.218487,13.8545781 L148.294118,11.5385996 L149,11 L148.94958,11.9425494 C148.92437,11.9964093 148.722689,18.3249551 147.159664,20.4524237 C145.647059,22.3913824 140.806723,25.4883303 140.806723,25.4883303 L140,26 L140.176471,25.0305206 Z" id="Shape"></path>
                <path d="M171,76 C164.36,76 159,81.36 159,88 C159,94.6133333 164.36,100 171,100 C177.56,100 182.866667,94.7466667 183,88.2133333 L183,87.76 C182.866667,81.2266667 177.533333,76 171,76" id="Shape"></path>
                <path d="M146,123 C143.236842,123 141,125.236842 141,128 C141,130.763158 143.236842,133 146,133 C148.763158,133 151,130.763158 151,128 C151,125.236842 148.763158,123 146,123" id="Shape"></path>
                <path d="M159.586747,144.947452 L159.586747,122.167994 L146.425195,117.990446 L135.018517,122.982484 C133.556122,123.613057 131.881016,122.95621 131.24288,121.53742 C130.604744,120.118631 131.269469,118.437102 132.705274,117.832803 L146.079538,112 L165.276792,118.095541 L165.276792,139.351115 L184.154978,139.351115 C185.723728,139.351115 187,140.612261 187,142.16242 C187,143.71258 185.723728,145 184.154978,145 L159.586747,145 L159.586747,144.947452 Z" id="Shape"></path>
                <path d="M93,116 C93,117.643478 91.6434783,119 90,119 C88.3565217,119 87,117.669565 87,116 C87,114.356522 88.3304348,113 90,113 C91.6695652,113 93,114.330435 93,116" id="Shape"></path>
                <path d="M148,92 C148,93.6434783 146.669565,95 145,95 C143.356522,95 142,93.6695652 142,92 C142,90.3565217 143.330435,89 145,89 C146.643478,89.026087 148,90.3565217 148,92" id="Shape"></path>
                <path d="M143,107.568807 L143,98.4311927 C143,97.6330275 143.663462,97 144.5,97 C145.336538,97 146,97.6330275 146,98.4311927 L146,107.568807 C146,108.366972 145.336538,109 144.5,109 C143.692308,109 143,108.366972 143,107.568807" id="Shape"></path>
                <path d="M136.728492,104.795949 C136.024017,104.438859 135.798585,103.622653 136.193091,102.984993 L140.279048,96.6593999 C140.673554,96.0217393 141.575282,95.8176879 142.279758,96.1747778 C142.984233,96.5318678 143.209665,97.3480733 142.78698,97.9857338 L138.701023,104.336833 C138.419233,104.770442 137.94019,105 137.432968,105 C137.207536,104.974494 136.953925,104.897974 136.728492,104.795949" id="Shape"></path>
                <path d="M150.395263,105.195383 L147.127757,97.9806532 C146.811547,97.2833187 147.101407,96.4518814 147.786529,96.1300347 C148.471651,95.808188 149.288527,96.1032142 149.604737,96.8005487 L152.872243,104.015279 C153.188453,104.712613 152.898593,105.544051 152.213471,105.865897 C152.029015,105.946359 151.844559,106 151.633753,106 C151.133087,106 150.63242,105.704974 150.395263,105.195383" id="Shape"></path>
                <path d="M101.762788,108.078947 L99.5448364,106.552632 L99.5448364,99.8157895 C99.5448364,98.2631579 98.2621659,97 96.6855499,97 C95.108934,97 93.8262635,98.2631579 93.8262635,99.8157895 L93.8262635,102.684211 L90.5394201,100.447368 L76.1360986,108.105263 L76.1360986,130.710526 L64.5118965,130.736842 C64.5118965,130.736842 62,130.842105 62,133.605263 C62,135.894737 64.5653411,136 64.5653411,136 L81.8813938,135.973684 L81.8813938,111.473684 L90.1653079,107.052632 L98.5293889,112.710526 C99.8387818,113.605263 101.629176,113.263158 102.511012,111.973684 C103.392848,110.736842 103.045458,108.973684 101.762788,108.078947" id="Shape"></path>
                <path d="M110,83.4490827 L110,144 L103.957544,144 L103.957544,84.0540658 C103.957544,84.0540658 103.442716,81.0291503 100.543421,81.0291503 C97.6712224,81.0291503 97.2105867,83.7384225 97.2376829,83.7647261 C97.2647792,83.7910297 96.9667208,85.605979 98.131858,86.5003018 C100.353748,88.2363403 99.3782839,90.4195402 98.5924937,91.1560413 C98.5924937,91.1560413 96.5331814,93.1551159 94.1487145,91.0771305 C94.1487145,91.0771305 90.6262066,88.3152511 91.0326498,83.6595116 C91.439093,79.0037721 95.3951404,75.1634446 99.893112,75.0056229 C104.065929,74.8741049 109.322595,77.0310011 110,83.4490827" id="Shape"></path>
                <path d="M121,86.4990149 L121,145 L127.042456,145 L127.042456,87.1075733 C127.042456,87.1075733 127.58438,84.0647812 130.456579,84.0647812 C133.328778,84.0647812 133.789413,86.7900646 133.762317,86.8165236 C133.735221,86.8429827 134.033279,88.668658 132.868142,89.568266 C130.646252,91.3145641 131.621716,93.5106662 132.407506,94.2515199 C132.407506,94.2515199 134.466819,96.2624086 136.851286,94.1721428 C136.851286,94.1721428 140.373793,91.3939413 139.96735,86.7106874 C139.560907,82.0274335 135.60486,78.1644105 131.106888,78.0056562 C126.934071,77.8733608 121.704502,80.0430039 121,86.4990149" id="Shape"></path>
                <path d="M112,56.4812603 L112,95.6169091 C112,96.7290182 113.029656,98 114.980584,98 C117.0128,98 118.042456,96.6760606 118.042456,95.6169091 L118.042456,57.0902725 C118.042456,57.0902725 118.58438,54.0452118 121.456579,54.0452118 C124.328778,54.0452118 124.789413,56.772527 124.762317,56.7990058 C124.735221,56.8254846 125.033279,58.652521 123.868142,59.5527998 C121.646252,61.273921 122.621716,63.4981392 123.407506,64.2395452 C123.407506,64.2395452 125.466819,66.2519331 127.851286,64.1865877 C127.851286,64.1865877 131.373793,61.4063149 130.96735,56.7195694 C130.560907,52.0328239 126.60486,48.1669209 122.106888,48.0080482 C117.934071,47.8491754 112.677405,50.0204361 112,56.4812603" id="Shape"></path>
                <path d="M64.4178712,145 C63.0775296,145 62,143.891753 62,142.5 C62,141.134021 63.0775296,140 64.4178712,140 L79.5821288,140 C80.9224704,140 82,141.108247 82,142.5 C82,143.891753 80.9224704,145 79.5821288,145 L64.4178712,145 Z" id="Shape"></path>
            </g>
        </g>
    </g>
</svg>