<?xml version="1.0" encoding="UTF-8"?>
<svg width="302px" height="276px" viewBox="0 0 302 276" version="1.1" xmlns="http://www.w3.org/2000/svg" xmlns:xlink="http://www.w3.org/1999/xlink">
    <!-- Generator: Sketch 51.3 (57544) - http://www.bohemiancoding.com/sketch -->
    <title>gbf-fruits-05</title>
    <desc>Created with Sketch.</desc>
    <defs></defs>
    <g id="Symbols" stroke="none" stroke-width="1" fill="none" fill-rule="evenodd">
        <g id="Top-Nav" transform="translate(-80.000000, -18.000000)" fill-rule="nonzero">
            <g id="gbf-fruits-05" transform="translate(80.000000, 18.000000)">
                <g id="Group">
                    <path d="M119.494425,21.5047146 C118.017065,21.5047146 116.814562,22.7032258 116.814562,24.1756824 C116.814562,25.648139 118.017065,26.8466501 119.494425,26.8466501 C120.971786,26.8466501 122.174289,25.648139 122.174289,24.1756824 C122.139932,22.7032258 120.971786,21.5047146 119.494425,21.5047146" id="Shape" fill="#E2E5AF"></path>
                    <path d="M114.306485,14.2794045 L114.306485,9.62233251 C114.306485,9.21141439 114.6157,8.90322581 115.027986,8.90322581 C115.440273,8.90322581 115.749488,9.21141439 115.749488,9.62233251 L115.749488,14.2451613 C115.749488,14.6560794 115.440273,14.964268 115.027986,14.964268 C114.6157,14.9985112 114.306485,14.6560794 114.306485,14.2794045" id="Shape" fill="#BECA3B"></path>
                    <path d="M0.446643914,250.180645 L0.446643914,203.404467 L15.3576792,203.404467 C21.1984073,203.404467 25.6648464,204.84268 28.4477816,208.061538 C30.3030717,210.218859 31.2307167,212.992556 31.2307167,216.177171 C31.2307167,219.156328 30.3717861,221.861538 28.6539249,224.053102 C32.2270762,226.792556 34.1167235,230.730521 34.0823663,235.421836 C34.0823663,240.044665 32.6393629,243.811414 29.6502844,246.24268 C26.2832765,248.982134 21.2327645,250.180645 14.6018203,250.180645 L0.446643914,250.180645 Z M10.3071672,240.900744 L14.567463,240.900744 C18.2780432,240.900744 20.8891923,240.352854 22.229124,239.496774 C23.5346985,238.640695 24.1531286,237.51067 24.1874858,235.421836 C24.1531286,233.230273 23.3972696,231.860546 21.6794084,230.662035 C20.2707622,229.737469 18.5185438,229.223821 16.3196815,229.155335 L10.3071672,229.155335 L10.3071672,240.900744 Z M10.3071672,219.772705 L17.0068259,219.772705 C18.7590444,219.772705 19.7897611,219.2933 20.4769056,218.53995 C21.0266212,217.923573 21.301479,217.204467 21.301479,216.142928 C21.2671217,214.910174 20.9235495,214.293797 20.0646189,213.711663 C19.2056883,213.129529 17.5908987,212.752854 15.2889647,212.752854 L10.3071672,212.752854 L10.3071672,219.772705 Z" id="Shape" fill="#71AA42"></path>
                    <polygon id="Shape" fill="#603913" points="71.7035267 250.180645 71.7035267 203.404467 81.5640501 203.404467 81.5640501 240.900744 98.1929465 240.900744 98.1929465 248.879404 98.1929465 250.180645"></polygon>
                    <polygon id="Shape" fill="#603913" points="131.69124 250.180645 131.69124 231.723573 112.038908 231.723573 112.038908 250.180645 102.178385 250.180645 102.178385 203.404467 112.038908 203.404467 112.038908 222.409429 131.69124 222.409429 131.69124 203.404467 141.551763 203.404467 141.551763 248.879404 141.551763 250.180645"></polygon>
                    <path d="M189.170876,246.516625 L189.720592,247.817866 L180.478498,251.276427 L176.355631,241.756824 L158.111945,241.756824 L154.126507,251.276427 L144.781342,247.74938 L163.849602,203.43871 L170.721047,203.43871 L189.170876,246.516625 Z M161.719454,233.367246 L172.816837,233.367246 L167.285324,220.217866 L161.719454,233.367246 Z" id="Shape" fill="#603913"></path>
                    <polygon id="Shape" fill="#603913" points="223.047099 204.774194 224.387031 205.253598 205.078271 250.077916 198.309898 250.077916 179.001138 205.253598 188.140159 202.137469 201.676906 233.367246 215.351081 202.137469"></polygon>
                    <polygon id="Shape" fill="#603913" points="294.029124 250.146402 272.246644 222.375186 272.246644 250.146402 262.386121 250.146402 262.386121 203.404467 269.910353 203.404467 291.658476 231.278412 291.658476 203.404467 301.518999 203.404467 301.518999 248.810918 301.518999 250.146402"></polygon>
                    <path d="M10.89124,274.048139 C9.48259386,275.520596 7.8334471,275.863027 6.35608646,275.863027 C3.02343572,275.863027 0.274857793,272.507196 0.274857793,268.398015 C0.274857793,264.254591 3.02343572,260.898759 6.35608646,260.898759 C7.79908987,260.898759 9.13902162,261.515136 10.6507395,262.987593 L9.37952218,264.597022 C8.28009101,263.535484 7.35244596,263.056079 6.35608646,263.056079 C4.01979522,263.056079 2.16450512,265.453102 2.16450512,268.363772 C2.16450512,271.274442 4.01979522,273.671464 6.35608646,273.671464 C7.24937429,273.671464 8.24573379,273.568734 9.00159272,273.055087 L9.03594994,270.349876 L6.63094425,270.349876 L6.63094425,268.192556 L10.9255973,268.192556 L10.89124,274.048139 Z" id="Shape" fill="#603913"></path>
                    <path d="M20.9235495,275.965757 L17.5221843,270.760794 C17.0755404,270.795037 16.5258248,270.795037 16.0791809,270.795037 L16.0791809,275.520596 L14.1895336,275.520596 L14.1895336,261.104218 L18.1406143,261.104218 C20.8204778,261.104218 22.4009101,263.775186 22.4009101,265.658561 C22.4009101,268.055583 21.3701934,269.733499 19.617975,270.418362 L22.4009101,274.630273 L20.9235495,275.965757 Z M18.1406143,263.227295 L16.0791809,263.227295 L16.0791809,268.603474 C16.7663254,268.603474 17.625256,268.603474 18.0718999,268.569231 C19.617975,268.466501 20.54562,267.37072 20.54562,265.624318 C20.54562,264.631266 19.6523322,263.227295 18.1406143,263.227295 Z" id="Shape" fill="#603913"></path>
                    <polygon id="Shape" fill="#603913" points="26.0771331 275.520596 26.0771331 261.104218 32.8798635 261.104218 32.8798635 263.261538 27.9667804 263.261538 27.9667804 266.857072 32.0552901 266.857072 32.0552901 269.048635 27.9667804 269.048635 27.9667804 273.329032 32.8798635 273.329032 32.8798635 275.520596"></polygon>
                    <path d="M44.6643914,275.589082 L43.6336746,272.609926 L38.3770193,272.609926 L37.3806598,275.589082 L35.5940842,274.733002 L40.3353811,260.933002 L41.6753129,260.933002 L46.4166098,274.733002 L44.6643914,275.589082 Z M41.0225256,264.870968 L39.0298066,270.726551 L42.9808874,270.726551 L41.0225256,264.870968 Z" id="Shape" fill="#603913"></path>
                    <polygon id="Shape" fill="#603913" points="51.0891923 263.261538 51.0891923 275.520596 49.1995449 275.520596 49.1995449 263.261538 46.5883959 263.261538 46.5883959 261.104218 53.6659841 261.104218 53.6659841 263.261538"></polygon>
                    <polygon id="Shape" fill="#603913" points="56.9299204 275.520596 56.9299204 261.104218 63.7326507 261.104218 63.7326507 263.261538 58.7852105 263.261538 58.7852105 266.857072 62.8737201 266.857072 62.8737201 269.048635 58.7852105 269.048635 58.7852105 273.329032 63.7326507 273.329032 63.7326507 275.520596"></polygon>
                    <path d="M73.9367463,275.965757 L70.5353811,270.760794 C70.0887372,270.795037 69.5390216,270.795037 69.0923777,270.795037 L69.0923777,275.520596 L67.2027304,275.520596 L67.2027304,261.104218 L71.1538111,261.104218 C73.8336746,261.104218 75.4141069,263.775186 75.4141069,265.658561 C75.4141069,268.055583 74.3833902,269.733499 72.6311718,270.418362 L75.4141069,274.630273 L73.9367463,275.965757 Z M71.1538111,263.227295 L69.0923777,263.227295 L69.0923777,268.603474 C69.7795222,268.603474 70.6384528,268.603474 71.0850967,268.569231 C72.6311718,268.466501 73.5588168,267.37072 73.5588168,265.624318 C73.5588168,264.631266 72.665529,263.227295 71.1538111,263.227295 Z" id="Shape" fill="#603913"></path>
                    <path d="M89.98157,275.520596 L86.6489192,275.520596 L86.6489192,261.104218 L90.1877133,261.104218 C93.5547213,261.104218 94.0013652,263.535484 94.0013652,264.836725 C94.0013652,265.692804 93.7608646,266.720099 93.1424346,267.507692 C94.0700796,268.226799 94.7572241,269.391067 94.7572241,271.137469 C94.7228669,273.808437 93.5547213,275.520596 89.98157,275.520596 M90.1877133,263.261538 L88.5385666,263.261538 L88.5385666,266.446154 L90.6343572,266.446154 C91.8025028,266.446154 92.1117179,265.521588 92.1117179,264.836725 C92.1117179,264.186104 91.7681456,263.261538 90.1877133,263.261538 M90.4282139,268.637717 C89.9128555,268.603474 89.1226394,268.637717 88.5042093,268.637717 L88.5042093,273.363275 L89.9472127,273.363275 C91.974289,273.363275 92.8332196,272.678412 92.8332196,271.137469 C92.8332196,269.288337 91.4932878,268.706203 90.4282139,268.637717" id="Shape" fill="#603913"></path>
                    <polygon id="Shape" fill="#603913" points="97.9868032 275.520596 97.9868032 261.104218 104.823891 261.104218 104.823891 263.261538 99.8764505 263.261538 99.8764505 266.857072 103.96496 266.857072 103.96496 269.048635 99.8764505 269.048635 99.8764505 273.329032 104.823891 273.329032 104.823891 275.520596"></polygon>
                    <polygon id="Shape" fill="#603913" points="108.29397 275.520596 108.29397 261.104218 110.183618 261.104218 110.183618 273.363275 115.096701 273.363275 115.096701 275.520596"></polygon>
                    <polygon id="Shape" fill="#603913" points="126.056655 275.520596 126.056655 269.493797 120.215927 269.493797 120.215927 275.520596 118.32628 275.520596 118.32628 261.104218 120.215927 261.104218 120.215927 267.302233 126.056655 267.302233 126.056655 261.104218 127.946303 261.104218 127.946303 275.520596"></polygon>
                    <path d="M139.799545,275.589082 L138.768828,272.609926 L133.512173,272.609926 L132.515813,275.589082 L130.729238,274.733002 L135.470535,260.933002 L136.810466,260.933002 L141.551763,274.733002 L139.799545,275.589082 Z M136.123322,264.870968 L134.130603,270.726551 L138.116041,270.726551 L136.123322,264.870968 Z" id="Shape" fill="#603913"></path>
                    <polygon id="Shape" fill="#603913" points="148.251422 275.726055 146.945848 275.726055 142.101479 261.789082 143.853697 261.035732 147.564278 271.822333 151.343572 261.035732 153.061433 261.789082"></polygon>
                    <polygon id="Shape" fill="#603913" points="155.535154 275.520596 155.535154 261.104218 162.337884 261.104218 162.337884 263.261538 157.424801 263.261538 157.424801 266.857072 161.478953 266.857072 161.478953 269.048635 157.424801 269.048635 157.424801 273.329032 162.337884 273.329032 162.337884 275.520596"></polygon>
                    <polygon id="Shape" fill="#603913" points="173.881911 275.486352 167.697611 265.590074 167.697611 275.486352 165.807964 275.486352 165.807964 261.104218 167.250967 261.104218 173.469625 271.034739 173.469625 261.104218 175.359272 261.104218 175.359272 275.486352"></polygon>
                    <polygon id="Shape" fill="#603913" points="188.449374 262.782134 188.449374 266.480397 192.537884 266.480397 192.537884 268.637717 188.449374 268.637717 188.449374 275.075434 186.559727 275.075434 186.559727 260.624814 193.362457 260.624814 193.362457 262.782134"></polygon>
                    <path d="M201.573834,275.383623 C198.241183,275.383623 195.492605,272.027792 195.492605,267.91861 C195.492605,263.775186 198.241183,260.419355 201.573834,260.419355 C204.906485,260.419355 207.655063,263.775186 207.655063,267.91861 C207.655063,272.027792 204.940842,275.383623 201.573834,275.383623 M201.573834,262.576675 C199.237543,262.576675 197.382253,264.973697 197.382253,267.884367 C197.382253,270.795037 199.237543,273.19206 201.573834,273.19206 C203.910125,273.19206 205.765415,270.795037 205.765415,267.884367 C205.765415,265.00794 203.910125,262.576675 201.573834,262.576675" id="Shape" fill="#603913"></path>
                    <path d="M215.179295,275.417866 C212.533788,275.417866 210.850284,273.19206 210.850284,270.486849 L210.850284,260.6933 L212.739932,260.6933 L212.739932,270.486849 C212.739932,271.993548 213.667577,273.260546 215.179295,273.260546 C216.656655,273.260546 217.5843,271.993548 217.5843,270.486849 L217.5843,260.6933 L219.473948,260.6933 L219.473948,270.486849 C219.508305,273.19206 217.859158,275.417866 215.179295,275.417866" id="Shape" fill="#603913"></path>
                    <polygon id="Shape" fill="#603913" points="231.842548 275.075434 225.623891 265.179156 225.623891 275.075434 223.734243 275.075434 223.734243 260.659057 225.177247 260.659057 231.395904 270.623821 231.395904 260.659057 233.285552 260.659057 233.285552 275.075434"></polygon>
                    <path d="M240.775427,275.109677 L236.996132,275.109677 L236.996132,260.659057 C236.996132,260.659057 239.194994,260.659057 240.741069,260.659057 C244.142435,260.6933 246.856655,263.912159 246.856655,268.02134 C246.822298,272.233251 244.108077,275.109677 240.775427,275.109677 M240.706712,262.85062 C239.98521,262.816377 239.36678,262.85062 238.851422,262.85062 L238.851422,272.952357 L240.741069,272.952357 C243.077361,272.952357 244.932651,270.93201 244.932651,268.055583 C244.932651,265.144913 243.111718,262.884864 240.706712,262.85062" id="Shape" fill="#603913"></path>
                    <path d="M257.576109,275.143921 L256.545392,272.164764 L251.288737,272.164764 L250.292378,275.143921 L248.505802,274.287841 L253.247099,260.487841 L254.587031,260.487841 L259.328328,274.287841 L257.576109,275.143921 Z M253.899886,264.46005 L251.907167,270.315633 L255.858248,270.315633 L253.899886,264.46005 Z" id="Shape" fill="#603913"></path>
                    <polygon id="Shape" fill="#603913" points="264.825484 262.85062 264.825484 275.109677 262.935836 275.109677 262.935836 262.85062 260.359044 262.85062 260.359044 260.659057 267.402275 260.659057 267.402275 262.85062"></polygon>
                    <polygon id="Shape" fill="#603913" points="271.490785 275.075434 271.490785 260.659057 273.380432 260.659057 273.380432 275.075434"></polygon>
                    <path d="M282.931741,275.383623 C279.59909,275.383623 276.850512,272.027792 276.850512,267.91861 C276.850512,263.775186 279.59909,260.419355 282.931741,260.419355 C286.264391,260.419355 289.012969,263.775186 289.012969,267.91861 C289.012969,272.027792 286.264391,275.383623 282.931741,275.383623 M282.931741,262.576675 C280.595449,262.576675 278.740159,264.973697 278.740159,267.884367 C278.740159,270.795037 280.595449,273.19206 282.931741,273.19206 C285.268032,273.19206 287.123322,270.795037 287.123322,267.884367 C287.123322,265.00794 285.268032,262.576675 282.931741,262.576675" id="Shape" fill="#603913"></path>
                    <polygon id="Shape" fill="#603913" points="300.350853 275.075434 294.132196 265.179156 294.132196 275.075434 292.242548 275.075434 292.242548 260.659057 293.685552 260.659057 299.904209 270.623821 299.904209 260.659057 301.793857 260.659057 301.793857 275.075434"></polygon>
                    <polygon id="Shape" fill="#71AA42" points="67.5119454 240.455583 67.5119454 249.80397 36.6248009 249.80397 36.6248009 203.233251 67.0996587 203.233251 67.0996587 212.547395 46.6571104 212.547395 46.6571104 222.032754 62.1865757 222.032754 62.1865757 230.93598 46.6571104 230.93598 46.6571104 240.455583"></polygon>
                    <polygon id="Shape" fill="#603913" points="258.091468 241.003474 258.091468 250.351861 227.23868 250.351861 227.23868 203.746898 257.679181 203.746898 257.679181 213.095285 237.27099 213.095285 237.27099 222.546402 252.766098 222.546402 252.766098 231.483871 237.27099 231.483871 237.27099 241.003474"></polygon>
                    <path d="M92.0773606,60.439206 C91.1153584,59.1037221 90.6343572,57.3915633 90.6343572,55.6109181 C90.6343572,53.830273 91.1153584,51.9811414 92.0430034,50.337469 L92.4552901,49.6183623 L93.0393629,50.2004963 C93.1080774,50.2689826 94.9290102,52.083871 94.9290102,55.1315136 C94.9290102,56.6724566 94.4480091,58.4531017 93.1080774,60.4049628 L92.6270762,61.1240695 L92.0773606,60.439206 Z" id="Shape" fill="#BECA3B"></path>
                    <path d="M113.447554,18.8679901 C112.485552,17.5325062 112.004551,15.8203474 112.004551,14.0397022 C112.004551,12.2590571 112.485552,10.4099256 113.413197,8.7662531 L113.791126,8.0471464 L114.375199,8.6292804 C114.409556,8.69776675 116.264846,10.5126551 116.264846,13.5602978 C116.264846,15.1012407 115.783845,16.8818859 114.443914,18.8337469 L113.962912,19.5528536 L113.447554,18.8679901 Z" id="Shape" fill="#3E9A42"></path>
                    <path d="M128.289875,38.7290323 L127.774516,37.2565757 L129.148805,38.0099256 C133.683959,40.5096774 142.926052,44.892804 144.231627,50.7141439 C144.231627,50.7483871 144.300341,51.125062 144.300341,51.6044665 C144.300341,52.0496278 144.265984,52.6317618 143.991126,53.1454094 C143.750626,53.6590571 143.166553,54.1727047 142.376337,54.1727047 L142.307622,54.1727047 C141.173834,54.1384615 139.765188,53.453598 137.600683,51.6387097 C130.797952,45.8858561 128.324232,38.7975186 128.289875,38.7290323" id="Shape" fill="#BECA3B"></path>
                    <path d="M195.836177,86.7037221 L196.351536,88.1761787 L194.94289,87.4228288 C190.407736,84.9230769 181.131286,80.5741935 179.825711,74.7870968 C179.825711,74.7528536 179.756997,74.3761787 179.756997,73.862531 C179.756997,73.4173697 179.791354,72.8352357 180.066212,72.3215881 C180.306712,71.7736973 180.925142,71.2942928 181.715358,71.328536 C182.849147,71.3627792 184.257793,72.0476427 186.456655,73.862531 C193.3281,79.5468983 195.836177,86.6352357 195.836177,86.7037221" id="Shape" fill="#BECA3B"></path>
                    <path d="M169.3124,41.0918114 C169.724687,36.5032258 173.126052,35.373201 175.393629,32.0516129 L176.149488,30.9558313 L176.49306,32.257072 C176.49306,32.2913151 176.836633,33.7295285 177.214562,36.9141439 L177.214562,37.2565757 C177.180205,39.1741935 175.462344,39.9960298 173.950626,40.5096774 C172.404551,40.9890819 170.686689,41.3315136 170.274403,41.6739454 L169.174972,42.4957816 L169.3124,41.0918114 Z" id="Shape" fill="#BECA3B"></path>
                    <path d="M101.319454,85.9846154 C101.731741,81.3960298 105.133106,80.266005 107.400683,76.9444169 L108.156542,75.8486352 L108.465757,77.1498759 C108.465757,77.1841191 108.843686,78.6223325 109.187258,81.8069479 L109.187258,82.1151365 C109.152901,84.0327543 107.43504,84.8545906 105.923322,85.3682382 C104.377247,85.8476427 102.659386,86.1900744 102.247099,86.5325062 L101.147668,87.3543424 L101.319454,85.9846154 Z" id="Shape" fill="#BECA3B"></path>
                    <path d="M136.982253,37.2223325 C137.394539,32.6337469 140.795904,31.5037221 143.063481,28.182134 L143.853697,27.0863524 L144.162912,28.3875931 C144.162912,28.4218362 144.540842,29.8600496 144.884414,33.044665 L144.918771,33.3528536 C144.884414,35.2704715 143.166553,36.0923077 141.654835,36.6059553 C140.10876,37.0853598 138.390899,37.4277916 137.978612,37.7702233 L136.879181,38.5920596 L136.982253,37.2223325 Z" id="Shape" fill="#BECA3B"></path>
                    <path d="M159.073948,97.3191067 C159.486234,92.7305211 162.8876,91.6004963 165.155176,88.2789082 L165.911035,87.1831266 L166.22025,88.4843672 C166.22025,88.5186104 166.59818,89.9568238 166.941752,93.1414392 L166.941752,93.483871 C166.907395,95.4014888 165.223891,96.2233251 163.712173,96.7027295 C162.166098,97.182134 160.448237,97.5245658 160.03595,97.8669975 L158.936519,98.6888337 L159.073948,97.3191067 Z" id="Shape" fill="#3E9A42"></path>
                    <path d="M126.9843,73.1434243 L127.018658,72.8352357 C127.087372,72.1503722 127.121729,71.533995 127.121729,70.8833747 C127.121729,68.3836228 127.156086,66.6029777 127.156086,62.9047146 L127.121729,60.8158809 C127.396587,61.226799 132.412742,70.4382134 133.512173,73.7255583 C133.580887,73.9995037 133.649602,74.2734491 133.649602,74.5473945 C133.649602,75.1980149 133.30603,75.7801489 132.825028,76.0883375 C132.344027,76.3965261 131.759954,76.5334988 131.141524,76.5334988 C129.354949,76.5334988 127.053015,75.4377171 126.9843,73.1434243" id="Shape" fill="#3E9A42"></path>
                    <path d="M157.630944,12.430273 C155.913083,12.2933002 155.019795,10.4099256 154.985438,8.69776675 C154.985438,7.49925558 155.535154,6.16377171 156.909443,5.58163772 C160.03595,4.28039702 161.856883,2.49975186 165.945392,0.273945409 C165.945392,0.273945409 161.547668,9.14292804 159.177019,11.6769231 C158.730375,12.1220844 158.18066,12.430273 157.630944,12.430273 Z" id="Shape" fill="#3E9A42"></path>
                    <path d="M118.532423,30.4764268 L118.56678,30.1682382 C118.635495,29.4833747 118.669852,28.8669975 118.669852,28.2163772 C118.669852,25.7166253 119.356997,19.4158809 119.356997,19.4158809 C119.356997,19.4501241 123.926507,27.8054591 125.025939,31.0585608 C125.12901,31.3325062 125.163367,31.6064516 125.163367,31.880397 C125.163367,32.5310174 124.819795,33.1131514 124.338794,33.42134 C123.857793,33.7295285 123.27372,33.8665012 122.65529,33.8665012 C120.868714,33.8665012 118.56678,32.8049628 118.532423,30.4764268" id="Shape" fill="#3E9A42"></path>
                    <path d="M113.756769,44.2079404 C113.688055,44.1394541 112.245051,42.6669975 110.802048,38.7290323 C110.389761,37.5647643 110.183618,36.4689826 110.183618,35.4416873 C110.183618,32.8734491 111.351763,30.7503722 112.622981,28.7300248 L113.481911,27.3945409 L113.756769,28.969727 C113.756769,29.0039702 114.821843,34.8937965 114.821843,37.119603 L114.821843,43.7627792 L114.821843,45.2352357 L113.756769,44.2079404 Z" id="Shape" fill="#BECA3B"></path>
                    <path d="M172.679408,65.2674938 C172.679408,65.2674938 171.408191,63.6580645 170.033902,61.6719603 C169.346758,60.6789082 168.659613,59.5831266 168.07554,58.5215881 C167.113538,56.7066998 167.628896,54.9260546 168.247327,53.3166253 C168.900114,51.707196 169.655973,50.1662531 169.587258,48.7280397 C169.587258,48.7280397 173.263481,55.2684864 175.153129,58.0421836 C177.386348,61.5692308 173.538339,65.301737 173.572696,65.3359801 L173.091695,65.8496278 L172.679408,65.2674938 Z" id="Shape" fill="#BECA3B"></path>
                    <path d="M140.864619,74.5131514 C140.830262,74.4789082 138.287827,72.0133995 137.87554,68.8972705 C137.841183,68.6233251 137.806826,68.3493797 137.806826,68.0754342 C137.806826,65.301737 139.524687,62.973201 141.105119,60.439206 L141.723549,59.4461538 L142.170193,60.5419355 C142.170193,60.5761787 143.647554,64.0347395 143.681911,66.466005 C143.681911,66.7057072 143.681911,66.9454094 143.613197,67.1851117 C143.235267,69.3424318 141.860978,74.239206 141.860978,74.239206 L141.586121,75.2322581 L140.864619,74.5131514 Z" id="Shape" fill="#3E9A42"></path>
                    <path d="M117.226849,65.1305211 C117.192491,65.0962779 114.650057,62.6307692 114.23777,59.5146402 C114.203413,59.2406948 114.169056,58.9667494 114.169056,58.692804 C114.169056,55.9191067 115.886917,53.5905707 117.467349,51.0565757 L118.085779,50.0635236 L118.532423,51.1593052 C118.532423,51.1935484 120.009784,54.6521092 120.044141,57.0833747 C120.044141,57.3230769 120.044141,57.5970223 119.975427,57.8024814 C119.597497,59.9598015 118.223208,64.8565757 118.188851,64.8565757 L117.913993,65.8496278 L117.226849,65.1305211 Z" id="Shape" fill="#BECA3B"></path>
                    <path d="M150.209784,59.1037221 C150.175427,59.0694789 147.632992,56.6039702 147.220705,53.4878412 C147.186348,53.2138958 147.151991,52.9399504 147.151991,52.666005 C147.151991,49.8923077 148.869852,47.5637717 150.450284,45.0297767 L151.068714,44.0367246 L151.515358,45.1325062 C151.515358,45.1667494 152.992719,48.6253102 153.027076,51.0565757 C153.027076,51.2962779 153.027076,51.5359801 152.958362,51.7756824 C152.580432,53.9672457 151.206143,58.8297767 151.171786,58.8640199 L150.896928,59.857072 L150.209784,59.1037221 Z" id="Shape" fill="#BECA3B"></path>
                    <path d="M162.028669,44.2421836 C161.994312,44.2079404 159.451877,41.7424318 159.03959,38.6263027 C159.005233,38.3523573 158.970876,38.0784119 158.970876,37.8044665 C158.970876,35.0307692 160.688737,32.7022333 162.26917,30.1682382 L162.8876,29.1751861 L163.334243,30.2709677 C163.334243,30.3052109 164.811604,33.7295285 164.811604,36.1950372 C164.811604,36.4347395 164.811604,36.7086849 164.777247,36.9141439 C164.399317,39.071464 162.990671,43.9682382 162.990671,44.0024814 L162.715813,44.9955335 L162.028669,44.2421836 Z" id="Shape" fill="#3E9A42"></path>
                    <path d="M95.7535836,80.6769231 C95.7192264,80.6426799 91.6307167,79.683871 91.0810011,76.3280397 C90.9435722,75.0952854 90.0502844,72.8694789 89.225711,71.0888337 C88.4011377,69.2739454 87.6109215,67.8014888 87.6109215,67.8014888 L88.1606371,67.5275434 L87.6109215,67.8014888 L88.5729238,67.0823821 C89.5349261,68.0411911 91.0810011,68.9315136 92.4552901,69.8560794 C93.7952218,70.7806452 95.0664391,71.8421836 95.1007964,73.4516129 C95.1007964,75.7116625 96.4750853,79.88933 96.4750853,79.9235732 L96.8530148,81.0193548 L95.7535836,80.6769231 Z" id="Shape" fill="#3E9A42"></path>
                    <path d="M152.958362,39.3111663 C152.924005,39.2769231 150.037998,36.4689826 149.625711,33.3528536 C149.591354,33.0104218 149.556997,32.6679901 149.556997,32.3255583 C149.591354,29.2779156 150.862571,25.1687345 152.546075,23.0799007 L153.542435,21.8813896 L153.611149,23.4565757 C153.611149,23.4565757 153.954721,31.1612903 153.954721,32.9419355 L153.954721,38.9002481 L153.954721,40.3727047 L152.958362,39.3111663 Z" id="Shape" fill="#BECA3B"></path>
                    <path d="M139.627759,23.4908189 C139.662116,22.0526055 140.830262,20.6143921 142.101479,19.1761787 C143.407053,17.7722084 144.918771,16.5394541 145.880774,15.9573201 L146.808419,15.4094293 L146.808419,16.4709677 C146.808419,16.5394541 146.808419,19.0734491 145.296701,21.3677419 C143.647554,23.7647643 140.349261,24.0729529 140.280546,24.0729529 L139.593402,24.1414392 L139.593402,23.4908189 L139.627759,23.4908189 Z" id="Shape" fill="#3E9A42"></path>
                    <path d="M98.2960182,67.7672457 C98.3303754,66.3290323 99.498521,64.8908189 100.769738,63.4526055 C102.075313,62.0486352 103.587031,60.8158809 104.549033,60.2337469 L105.476678,59.6858561 L105.476678,60.7473945 C105.476678,60.8158809 105.476678,63.3498759 103.96496,65.6441687 C102.281456,68.0411911 99.0175199,68.3151365 98.9488055,68.3493797 L98.261661,68.417866 L98.261661,67.7672457 L98.2960182,67.7672457 Z" id="Shape" fill="#BECA3B"></path>
                    <path d="M175.908987,49.3101737 C175.943345,47.8719603 177.11149,46.4337469 178.382708,44.9955335 C179.688282,43.5915633 181.2,42.3588089 182.162002,41.7766749 L183.089647,41.2287841 L183.089647,42.2903226 C183.089647,42.3588089 183.089647,44.892804 181.577929,47.1870968 C179.928783,49.5841191 176.630489,49.8580645 176.561775,49.8923077 L175.87463,49.960794 L175.87463,49.3101737 L175.908987,49.3101737 Z" id="Shape" fill="#BECA3B"></path>
                    <path d="M201.573834,51.0908189 C201.573834,51.0908189 201.848692,46.9131514 201.848692,43.0094293 C201.883049,39.6878412 204.769056,34.1062035 206.177702,32.5652605 C206.418203,32.3598015 206.521274,32.1543424 206.967918,32.1200993 C207.208419,32.1200993 207.448919,32.2913151 207.517634,32.462531 C207.586348,32.6337469 207.620705,32.7707196 207.620705,32.9076923 C207.620705,35.8526055 209.853925,42.4957816 209.888282,44.3791563 C209.853925,45.1325062 209.304209,45.7146402 208.617065,46.4679901 C207.895563,47.1870968 206.967918,48.008933 206.07463,48.7280397 C204.21934,50.2004963 202.398407,51.4674938 202.398407,51.4674938 L201.573834,52.0496278 L201.573834,51.0908189 Z" id="Shape" fill="#BECA3B"></path>
                    <path d="M163.780887,15.5806452 C163.815245,15.8545906 163.849602,16.1627792 163.849602,16.4367246 C163.780887,21.0595533 158.730375,26.8466501 158.730375,26.9151365 L157.768373,28.0451613 L157.630944,26.5727047 C157.596587,26.3672457 157.596587,26.1617866 157.596587,25.9220844 C157.596587,22.360794 159.383163,17.8406948 160.894881,15.6491315 C161.444596,14.9300248 161.822526,14.382134 162.647099,14.2794045 C163.402958,14.3478908 163.712173,14.9985112 163.780887,15.5806452" id="Shape" fill="#BECA3B"></path>
                    <path d="M164.811604,48.8650124 C164.777247,49.1389578 164.74289,49.4129032 164.639818,49.7210918 C163.368601,54.1384615 156.9438,58.4188586 156.9438,58.4873449 L155.741297,59.3091811 L156.016155,57.8709677 C156.050512,57.6655087 156.119226,57.4600496 156.153584,57.2545906 C157.115586,53.830273 160.001593,49.9265509 162.028669,48.2143921 C162.750171,47.6665012 163.265529,47.22134 164.090102,47.3583127 C164.74289,47.5980149 164.880319,48.3171216 164.811604,48.8650124" id="Shape" fill="#3E9A42"></path>
                    <path d="M188.792947,43.6600496 C189.480091,41.4684864 191.163595,39.1399504 192.881456,37.2565757 C194.668032,35.4074442 196.214107,34.0719603 197.519681,33.9692308 C197.760182,33.9692308 198.103754,34.0719603 198.309898,34.3116625 C198.516041,34.5513648 198.584755,34.8595533 198.584755,35.0992556 C198.584755,35.2704715 198.550398,35.4416873 198.516041,35.6129032 C197.41661,40.3042184 189.720592,44.2764268 189.686234,44.3791563 L188.346303,45.098263 L188.792947,43.6600496 Z" id="Shape" fill="#3E9A42"></path>
                    <path d="M188.208874,58.6585608 C187.109443,63.3498759 179.379067,67.3220844 179.379067,67.4248139 L178.039135,68.1439206 L178.485779,66.7057072 C179.172924,64.5141439 180.856428,62.1856079 182.574289,60.3022333 C184.360865,58.4531017 185.90694,57.1176179 187.212514,57.0148883 C187.453015,57.0148883 187.796587,57.1176179 188.00273,57.3573201 C188.208874,57.5970223 188.277588,57.9052109 188.277588,58.1449132 C188.243231,58.316129 188.243231,58.4873449 188.208874,58.6585608" id="Shape" fill="#3E9A42"></path>
                    <path d="M131.725597,12.4987593 C133.855745,16.0942928 134.54289,19.039206 134.54289,21.4019851 C134.54289,25.8193548 132.000455,27.9424318 131.931741,27.9766749 L131.588168,28.2848635 L131.210239,28.0109181 C129.251877,26.5384615 128.83959,22.8401985 128.805233,19.3473945 C128.805233,16.6079404 129.148805,14.0739454 129.698521,12.7727047 C129.904664,12.3617866 130.110808,11.9166253 130.797952,11.848139 C131.278953,11.848139 131.553811,12.1905707 131.725597,12.4987593" id="Shape" fill="#BECA3B"></path>
                    <path d="M116.058703,79.0674938 C113.722412,78.4853598 112.38248,76.773201 111.660978,74.6843672 C110.939477,72.6297767 110.664619,70.1300248 110.321047,67.6987593 L110.183618,66.671464 L111.14562,67.048139 C111.179977,67.0823821 117.467349,69.4109181 119.494425,72.1503722 C121.246644,74.6158809 123.720364,78.1086849 123.720364,78.1086849 L124.167008,78.7593052 L123.445506,79.0332506 C123.376792,79.0674938 122.071217,79.5468983 119.906712,79.5468983 C118.807281,79.5468983 117.501706,79.4441687 116.058703,79.0674938" id="Shape" fill="#BECA3B"></path>
                    <path d="M101.113311,36.2292804 C99.945165,34.8937965 98.3990899,33.3528536 96.9217292,32.5652605 C93.4172924,30.5791563 93.4516496,26.4699752 93.4516496,26.435732 L93.4516432,25.2372208 L94.4136519,25.9220844 C96.2345848,27.2233251 97.6432309,27.3945409 98.9831627,27.7369727 C100.357452,28.0794045 101.663026,28.8669975 102.350171,31.092804 C103.758817,35.3389578 104.136746,38.1811414 104.136746,38.2153846 L103.037315,38.6263027 C103.037315,38.6605459 102.281456,37.5647643 101.113311,36.2292804" id="Shape" fill="#BECA3B"></path>
                    <path d="M197.519681,78.7593052 L195.80182,78.3483871 L197.41661,77.6292804 C199.787258,76.6019851 201.058476,75.1637717 203.772696,75.1637717 C204.494198,75.1637717 205.284414,75.2665012 206.246416,75.5062035 C210.747213,76.6019851 210.953356,79.8208437 210.918999,79.9578164 L210.918999,80.3344913 L210.575427,80.5057072 C210.541069,80.5399504 209.269852,81.1563275 207.483276,81.1563275 C206.899204,81.1563275 206.246416,81.0878412 205.559272,80.8823821 C203.119909,80.1632754 197.519681,78.7593052 197.519681,78.7593052" id="Shape" fill="#3E9A42"></path>
                    <path d="M108.843686,89.408933 L107.125825,88.9637717 L108.740614,88.244665 C111.111263,87.2173697 112.38248,85.7791563 115.096701,85.7791563 C115.818203,85.7791563 116.608419,85.8818859 117.570421,86.1215881 C122.105575,87.2173697 122.277361,90.4362283 122.243003,90.573201 L122.243003,90.9498759 L121.899431,91.1210918 C121.865074,91.155335 120.593857,91.7717122 118.807281,91.7717122 C118.223208,91.7717122 117.570421,91.7032258 116.883276,91.4977667 C114.478271,90.8129032 108.843686,89.408933 108.843686,89.408933" id="Shape" fill="#3E9A42"></path>
                    <path d="M170.961547,9.10868486 L169.243686,8.69776675 L170.858476,7.97866005 C173.847554,6.67741935 175.427986,4.89677419 178.760637,4.89677419 C179.653925,4.89677419 180.650284,5.0337469 181.81843,5.30769231 C187.3843,6.67741935 187.590444,10.5811414 187.556086,10.7181141 L187.556086,11.0947891 L187.212514,11.266005 C187.1438,11.3002481 185.597725,12.053598 183.43322,12.053598 C182.711718,12.053598 181.887144,11.9508685 181.062571,11.7454094 C178.004778,10.8550868 170.961547,9.10868486 170.961547,9.10868486" id="Shape" fill="#BECA3B"></path>
                    <path d="M168.762685,28.6272953 C169.896473,24.2784119 172.988623,19.0049628 175.737201,17.3955335 C178.279636,15.9573201 180.100569,15.5806452 180.134926,15.5806452 L182.093288,15.2039702 L180.650284,16.6421836 C180.650284,16.6421836 180.341069,16.9503722 179.791354,17.7379653 C179.241638,18.5255583 178.451422,19.826799 177.592491,21.7101737 C175.668487,25.853598 169.655973,29.2779156 169.621615,29.346402 L168.350398,30.0655087 L168.762685,28.6272953 Z" id="Shape" fill="#BECA3B"></path>
                    <path d="M184.773151,97.9012407 C184.773151,97.9012407 182.711718,96.9081886 180.650284,95.4699752 C178.623208,93.9975186 176.424346,92.2168734 176.355631,89.991067 C176.355631,86.6009926 175.324915,82.9027295 173.022981,80.6084367 C172.885552,80.471464 172.78248,80.3687345 172.713766,80.266005 C172.645051,80.1290323 172.54198,80.1632754 172.473265,79.7181141 C172.473265,79.6153846 172.507622,79.4099256 172.679408,79.2387097 C172.851195,79.101737 173.022981,79.0674938 173.126052,79.0674938 C173.607053,79.1359801 173.641411,79.2387097 173.984983,79.4441687 C174.259841,79.6496278 174.672127,79.88933 175.084414,80.2317618 C175.977702,80.8823821 177.077133,81.7384615 178.210922,82.6972705 C180.478498,84.6491315 182.677361,86.6009926 183.158362,88.039206 C183.879863,90.5047146 185.632082,97.1478908 185.632082,97.1478908 L185.975654,98.4148883 L184.773151,97.9012407 Z" id="Shape" fill="#3E9A42"></path>
                    <path d="M202.467122,69.4451613 C202.432765,69.4451613 200.405688,68.4521092 198.344255,67.048139 C196.282821,65.5756824 194.118316,63.7950372 194.049602,61.5692308 C194.049602,58.1791563 193.018885,54.4808933 190.716951,52.1866005 L190.888737,52.0153846 L190.716951,52.1866005 C190.579522,52.0496278 190.476451,51.9468983 190.407736,51.8441687 C190.339022,51.707196 190.23595,51.7414392 190.167235,51.2962779 C190.167235,51.1593052 190.201593,50.9538462 190.407736,50.8168734 C190.579522,50.6799007 190.716951,50.6799007 190.820023,50.6799007 C191.301024,50.7483871 191.335381,50.8511166 191.678953,51.0565757 C191.988168,51.2277916 192.366098,51.501737 192.812742,51.8441687 C193.671672,52.4947891 194.805461,53.3508685 195.939249,54.3096774 C198.206826,56.2272953 200.440046,58.2133995 200.886689,59.6516129 C201.608191,62.1171216 203.36041,68.7602978 203.36041,68.7602978 L203.703982,70.0272953 L202.467122,69.4451613 Z" id="Shape" fill="#BECA3B"></path>
                    <path d="M148.320137,10.8550868 C148.320137,10.8550868 140.898976,9.79354839 138.906257,9.79354839 C137.463254,9.75930521 136.088965,8.59503722 134.886462,7.53349876 C133.718316,6.43771712 132.825028,5.37617866 132.790671,5.37617866 L132.206598,4.69131514 L133.065529,4.41736973 C133.099886,4.41736973 135.023891,3.76674938 137.497611,3.76674938 C139.524687,3.76674938 141.929693,4.21191067 143.853697,5.92406948 L150.553356,11.1632754 L148.320137,10.8550868 Z" id="Shape" fill="#BECA3B"></path>
                    <path d="M121.212287,44.1736973 L120.903072,42.0506203 L122.277361,43.6942928 C125.163367,47.3583127 129.732878,46.9131514 131.828669,50.8168734 C133.649602,54.4124069 133.993174,57.6312655 133.993174,57.6655087 L134.096246,58.5215881 L133.271672,58.316129 C133.202958,58.2476427 125.919226,56.7751861 123.789078,53.1796526 C121.968146,49.8923077 121.246644,44.2079404 121.212287,44.1736973" id="Shape" fill="#BECA3B"></path>
                    <path d="M127.053015,94.0317618 C127.121729,93.9632754 127.053015,86.5325062 130.110808,83.7588089 C132.996815,81.2590571 138.425256,79.3756824 138.459613,79.3414392 L140.486689,78.6223325 L139.146758,80.3002481 C137.669397,82.1151365 137.222753,84.0669975 136.776109,85.9503722 C136.329465,87.8337469 135.848464,89.7171216 134.130603,91.0868486 C130.969738,93.5866005 127.877588,94.6138958 127.843231,94.6138958 L127.018658,94.8878412 L127.053015,94.0317618 Z" id="Shape" fill="#BECA3B"></path>
                    <path d="M103.312173,50.2689826 C102.350171,48.8307692 100.391809,47.3583127 98.6739477,46.2967742 C96.9560865,45.2352357 94.4136519,42.9751861 94.4136519,42.9751861 C96.3376564,43.6258065 100.013879,43.7970223 102.10967,43.933995 C104.205461,44.0367246 106.369966,44.6873449 107.847327,47.1528536 L110.664619,51.707196 L111.111263,52.4263027 L110.286689,52.6317618 C110.252332,52.6317618 109.53083,52.8029777 108.534471,52.8372208 L108.500114,52.8372208 C106.988396,52.8372208 104.755176,52.3920596 103.312173,50.2689826" id="Shape" fill="#3E9A42"></path>
                    <path d="M182.677361,32.5310174 C183.708077,26.6069479 185.151081,21.4362283 189.548805,18.3200993 L193.740387,15.3751861 L194.702389,14.6903226 L194.633675,15.8888337 C194.599317,15.9573201 194.32446,24.0044665 192.194312,26.7096774 C190.132878,29.1751861 183.536291,33.1131514 183.536291,33.1131514 L182.43686,33.7637717 L182.677361,32.5310174 Z" id="Shape" fill="#3E9A42"></path>
                    <path d="M222.153811,98.7573201 C213.598862,98.7573201 206.69306,105.640199 206.69306,114.166749 C206.69306,122.659057 213.598862,129.576179 222.153811,129.576179 C230.605688,129.576179 237.442776,122.830273 237.614562,114.440695 L237.614562,113.858561 C237.442776,105.503226 230.605688,98.7573201 222.153811,98.7573201" id="Shape" fill="#D6DB8B"></path>
                    <path d="M190.545165,159.162283 C186.937656,159.162283 184.017292,162.072953 184.017292,165.668486 C184.017292,169.26402 186.937656,172.17469 190.545165,172.17469 C194.152673,172.17469 197.073038,169.26402 197.073038,165.668486 C197.107395,162.107196 194.187031,159.162283 190.545165,159.162283" id="Shape" fill="#E2E5AF"></path>
                    <path d="M207.792491,187.995037 L207.792491,158.306203 L190.785666,152.861538 L176.046416,159.367742 C174.156769,160.189578 171.992264,159.333499 171.167691,157.484367 C170.343117,155.635236 171.202048,153.443672 173.057338,152.656079 L190.339022,145.054094 L215.144937,152.998511 L215.144937,180.701241 L239.538567,180.701241 C241.565643,180.701241 243.21479,182.344913 243.21479,184.365261 C243.21479,186.385608 241.565643,188.063524 239.538567,188.063524 L207.792491,188.063524 L207.792491,187.995037 Z" id="Shape" fill="#603913"></path>
                    <path d="M120.765643,149.950868 C120.765643,152.108189 118.979067,153.888834 116.814562,153.888834 C114.650057,153.888834 112.863481,152.142432 112.863481,149.950868 C112.863481,147.793548 114.6157,146.012903 116.814562,146.012903 C118.979067,146.012903 120.765643,147.793548 120.765643,149.950868" id="Shape" fill="#BECA3B"></path>
                    <path d="M192.366098,118.995037 C192.366098,121.152357 190.613879,122.933002 188.415017,122.933002 C186.250512,122.933002 184.463936,121.1866 184.463936,118.995037 C184.463936,116.837717 186.216155,115.057072 188.415017,115.057072 C190.613879,115.057072 192.366098,116.803474 192.366098,118.995037" id="Shape" fill="#BECA3B"></path>
                    <path d="M186.662799,139.575186 L186.662799,128.206452 C186.662799,127.2134 187.453015,126.425806 188.449374,126.425806 C189.445734,126.425806 190.23595,127.2134 190.23595,128.206452 L190.23595,139.575186 C190.23595,140.568238 189.445734,141.355831 188.449374,141.355831 C187.453015,141.355831 186.662799,140.533995 186.662799,139.575186" id="Shape" fill="#BECA3B"></path>
                    <path d="M177.558134,136.835732 C176.699204,136.356328 176.424346,135.260546 176.905347,134.404467 L181.887144,125.912159 C182.368146,125.056079 183.467577,124.782134 184.326507,125.261538 C185.185438,125.740943 185.460296,126.836725 184.944937,127.692804 L179.96314,136.219355 C179.619568,136.801489 179.035495,137.109677 178.417065,137.109677 C178.142207,137.075434 177.832992,137.006948 177.558134,136.835732" id="Shape" fill="#BECA3B"></path>
                    <path d="M196.111035,136.664516 L191.850739,127.453102 C191.438453,126.562779 191.816382,125.501241 192.70967,125.090323 C193.602958,124.679404 194.668032,125.056079 195.080319,125.946402 L199.340614,135.157816 C199.752901,136.048139 199.374972,137.109677 198.481684,137.520596 C198.241183,137.623325 198.000683,137.691811 197.725825,137.691811 C197.073038,137.726055 196.42025,137.315136 196.111035,136.664516" id="Shape" fill="#BECA3B"></path>
                    <path d="M131.347668,140.670968 L128.496018,138.684864 L128.496018,129.91861 C128.496018,127.898263 126.846871,126.254591 124.819795,126.254591 C122.792719,126.254591 121.143572,127.898263 121.143572,129.91861 L121.143572,133.651117 L116.917634,130.740447 L98.3990899,140.705211 L98.3990899,170.120099 L83.4536974,170.154342 C83.4536974,170.154342 80.2241183,170.291315 80.2241183,173.886849 C80.2241183,176.866005 83.5224118,177.002978 83.5224118,177.002978 L105.785893,176.968734 L105.785893,145.088337 L116.436633,139.335484 L127.190444,146.697767 C128.873948,147.862035 131.175882,147.416873 132.30967,145.738958 C133.443458,144.095285 133.031172,141.800993 131.347668,140.670968" id="Shape" fill="#603913"></path>
                    <path d="M142.273265,108.482382 L142.273265,187.310174 L134.611604,187.310174 L134.611604,109.269975 C134.611604,109.269975 133.958817,105.33201 130.282594,105.33201 C126.640728,105.33201 126.056655,108.859057 126.091013,108.8933 C126.12537,108.927543 125.74744,111.290323 127.224801,112.454591 C130.042093,114.71464 128.805233,117.556824 127.808874,118.515633 C127.808874,118.515633 125.197725,121.118114 122.174289,118.412903 C122.174289,118.412903 117.70785,114.81737 118.223208,108.756328 C118.738567,102.695285 123.754721,97.6957816 129.45802,97.4903226 C134.749033,97.3191067 141.379977,100.092804 142.273265,108.482382" id="Shape" fill="#603913"></path>
                    <path d="M157.493515,111.598511 L157.493515,187.310174 L165.155176,187.310174 L165.155176,112.420347 C165.155176,112.420347 165.842321,108.482382 169.484187,108.482382 C173.126052,108.482382 173.710125,112.009429 173.675768,112.043672 C173.641411,112.077916 174.01934,114.440695 172.54198,115.604963 C169.724687,117.865012 170.961547,120.707196 171.957907,121.666005 C171.957907,121.666005 174.569056,124.268486 177.592491,121.563275 C177.592491,121.563275 182.058931,117.967742 181.543572,111.9067 C181.028214,105.845658 176.012059,100.846154 170.30876,100.640695 C165.017747,100.469479 158.352446,103.243176 157.493515,111.598511" id="Shape" fill="#603913"></path>
                    <path d="M145.983845,73.7940447 L145.983845,124.405459 C145.983845,125.843672 147.28942,127.487345 149.76314,127.487345 C152.339932,127.487345 153.645506,125.775186 153.645506,124.405459 L153.645506,74.6158809 C153.645506,74.6158809 154.332651,70.6779156 157.974516,70.6779156 C161.616382,70.6779156 162.200455,74.2049628 162.166098,74.239206 C162.131741,74.2734491 162.50967,76.6362283 161.032309,77.8004963 C158.215017,80.0263027 159.451877,82.9027295 160.448237,83.8615385 C160.448237,83.8615385 163.059386,86.4640199 166.082821,83.7930521 C166.082821,83.7930521 170.549261,80.1975186 170.033902,74.1364764 C169.518544,68.0754342 164.502389,63.0759305 158.79909,62.8704715 C153.542435,62.6650124 146.877133,65.4387097 145.983845,73.7940447" id="Shape" fill="#603913"></path>
                    <path d="M84.1408419,188.200496 C82.3886234,188.200496 80.9799772,186.72804 80.9799772,184.878908 C80.9799772,183.06402 82.3886234,181.55732 84.1408419,181.55732 L103.96496,181.55732 C105.717179,181.55732 107.125825,183.029777 107.125825,184.878908 C107.125825,186.72804 105.717179,188.200496 103.96496,188.200496 L84.1408419,188.200496 Z" id="Shape" fill="#603913"></path>
                </g>
                <circle id="Oval" fill="#FFDD00" cx="107.5" cy="53.5" r="6.5"></circle>
                <circle id="Oval" fill="#F99D1C" cx="179.5" cy="29.5" r="6.5"></circle>
                <circle id="Oval" fill="#ED1A37" cx="151.5" cy="48.5" r="6.5"></circle>
                <circle id="Oval" fill="#8D288F" cx="190.5" cy="65.5" r="6.5"></circle>
                <circle id="Oval" fill="#0090BD" cx="133.5" cy="29.5" r="6.5"></circle>
            </g>
        </g>
    </g>
</svg>