<?xml version="1.0" encoding="UTF-8"?>
<svg width="734px" height="674px" viewBox="0 0 734 674" version="1.1" xmlns="http://www.w3.org/2000/svg" xmlns:xlink="http://www.w3.org/1999/xlink">
    <!-- Generator: Sketch 51.3 (57544) - http://www.bohemiancoding.com/sketch -->
    <title>gbh_light-green-06</title>
    <desc>Created with Sketch.</desc>
    <defs></defs>
    <g id="Page-1" stroke="none" stroke-width="1" fill="none" fill-rule="evenodd">
        <g id="Desktop-HD" transform="translate(-662.000000, -1571.000000)" fill="#E2E5AF" fill-rule="nonzero">
            <g id="gbh_light-green-06" transform="translate(662.000000, 1571.000000)">
                <path d="M1,610 L1,496 L37.3508815,496 C51.589706,496 62.4782189,499.505124 69.2626,507.349927 C73.7855208,512.607613 76.0469811,519.367496 76.0469811,527.128843 C76.0469811,534.389458 73.9530363,540.98243 69.7651468,546.323572 C78.4759571,553 83.0826356,562.597365 82.9988778,574.030747 C82.9988778,585.297218 79.4810506,594.477306 72.1941227,600.402635 C63.9858592,607.079063 51.6734638,610 35.5082101,610 L1,610 Z M25.0384861,587.300146 L35.4244523,587.300146 C44.4702938,587.300146 50.8358859,585.964861 54.1024398,583.878477 C57.2852359,581.792094 58.7928761,579.038067 58.8766339,573.947291 C58.7928761,568.606149 56.9502047,565.267936 52.7623151,562.346999 C49.3282457,560.093704 45.0565983,558.841874 39.6960996,558.674963 L25.0384861,558.674963 L25.0384861,587.300146 Z M25.0384861,535.891654 L41.3712555,535.891654 C45.6429028,535.891654 48.1556366,534.72328 49.8307924,532.887262 C51.1709171,531.385066 51.8409794,529.632504 51.8409794,527.045388 C51.7572216,524.040996 50.9196437,522.538799 48.8256989,521.120059 C46.7317541,519.701318 42.7951379,518.783309 37.1833659,518.783309 L25.0384861,518.783309 L25.0384861,535.891654 Z" id="Shape"></path>
                <polygon id="Shape" points="174 610 174 496 198.19585 496 198.19585 587.300146 239 587.300146 239 606.745242 239 610"></polygon>
                <polygon id="Shape" points="319.895379 610 319.895379 565.01757 272.104621 565.01757 272.104621 610 248 610 248 496 272.104621 496 272.104621 542.317716 319.895379 542.317716 319.895379 496 344 496 344 606.745242 344 610"></polygon>
                <path d="M459.666667,601.358626 L461,604.54116 L438.583333,613 L428.583333,589.717251 L384.333333,589.717251 L374.666667,613 L352,604.373658 L398.25,496 L414.916667,496 L459.666667,601.358626 Z M393,569.282033 L419.916667,569.282033 L406.5,537.121689 L393,569.282033 Z" id="Shape"></path>
                <polygon id="Shape" points="542.754917 499.513919 546 500.683084 499.154312 610 482.845688 610 436 500.683084 458.133132 493 490.916793 569.246253 524.033283 493"></polygon>
                <polygon id="Shape" points="715.557895 610 662.252632 542.218475 662.252632 610 638 610 638 496 656.442105 496 709.831579 563.94868 709.831579 496 734 496 734 606.740469 734 610"></polygon>
                <path d="M25.916129,669.512586 C22.4774194,673.153318 18.4516129,674 14.8451613,674 C6.70967742,674 0,665.702517 0,655.542334 C0,645.297483 6.70967742,637 14.8451613,637 C18.3677419,637 21.6387097,638.524027 25.3290323,642.16476 L22.2258065,646.144165 C19.5419355,643.519451 17.2774194,642.334096 14.8451613,642.334096 C9.14193548,642.334096 4.61290323,648.26087 4.61290323,655.457666 C4.61290323,662.654462 9.14193548,668.581236 14.8451613,668.581236 C17.0258065,668.581236 19.4580645,668.327231 21.3032258,667.057208 L21.3870968,660.368421 L15.516129,660.368421 L15.516129,655.034325 L26,655.034325 L25.916129,669.512586 Z" id="Shape"></path>
                <path d="M50.4016736,674 L42.1171548,661.041475 C41.0292887,661.126728 39.6903766,661.126728 38.6025105,661.126728 L38.6025105,672.891705 L34,672.891705 L34,637 L43.623431,637 C50.1506276,637 54,643.64977 54,648.33871 C54,654.306452 51.4895397,658.483871 47.2217573,660.18894 L54,670.675115 L50.4016736,674 Z M43.623431,642.370968 L38.6025105,642.370968 L38.6025105,655.75576 C40.2761506,655.75576 42.3682008,655.75576 43.4560669,655.670507 C47.2217573,655.414747 49.4811715,652.686636 49.4811715,648.33871 C49.3974895,645.866359 47.2217573,642.370968 43.623431,642.370968 Z" id="Shape"></path>
                <polygon id="Shape" points="63 672 63 637 79 637 79 642.23753 67.3636364 642.23753 67.3636364 650.966746 76.979798 650.966746 76.979798 656.287411 67.3636364 656.287411 67.3636364 666.679335 79 666.679335 79 672"></polygon>
                <path d="M107.790476,673 L105.314286,665.682243 L92.6857143,665.682243 L90.2920635,673 L86,670.897196 L97.3904762,637 L100.609524,637 L112,670.897196 L107.790476,673 Z M98.9587302,646.757009 L94.1714286,661.140187 L103.663492,661.140187 L98.9587302,646.757009 Z" id="Shape"></path>
                <polygon id="Shape" points="123.780488 642.459716 123.780488 673 119.219512 673 119.219512 642.459716 113 642.459716 113 637 130 637 130 642.459716"></polygon>
                <polygon id="Shape" points="138 672 138 637 154 637 154 642.23753 142.444444 642.23753 142.444444 650.966746 152.060606 650.966746 152.060606 656.287411 142.444444 656.287411 142.444444 666.679335 154 666.679335 154 672"></polygon>
                <path d="M179.401674,674 L171.117155,661.041475 C170.029289,661.126728 168.690377,661.126728 167.60251,661.126728 L167.60251,672.891705 L163,672.891705 L163,637 L172.623431,637 C179.150628,637 183,643.64977 183,648.33871 C183,654.306452 180.48954,658.483871 176.221757,660.18894 L183,670.675115 L179.401674,674 Z M172.623431,642.370968 L167.60251,642.370968 L167.60251,655.75576 C169.276151,655.75576 171.368201,655.75576 172.456067,655.670507 C176.221757,655.414747 178.481172,652.686636 178.481172,648.33871 C178.39749,645.866359 176.221757,642.370968 172.623431,642.370968 Z" id="Shape"></path>
                <path d="M218.809322,672 L211,672 L211,637 L219.292373,637 C227.182203,637 228.228814,642.902613 228.228814,646.061758 C228.228814,648.140143 227.665254,650.634204 226.216102,652.546318 C228.389831,654.292162 230,657.118765 230,661.35867 C230,667.84323 227.182203,672 218.809322,672 M219.292373,642.23753 L215.427966,642.23753 L215.427966,649.969121 L220.338983,649.969121 C223.076271,649.969121 223.800847,647.724466 223.800847,646.061758 C223.800847,644.482185 223.076271,642.23753 219.292373,642.23753 M219.936441,655.289786 C218.728814,655.206651 216.877119,655.289786 215.427966,655.289786 L215.427966,666.679335 L218.809322,666.679335 C223.559322,666.679335 225.572034,665.016627 225.572034,661.275534 C225.572034,656.786223 222.351695,655.372922 219.936441,655.289786" id="Shape"></path>
                <polygon id="Shape" points="239 672 239 637 255 637 255 642.23753 243.444444 642.23753 243.444444 650.966746 253.060606 650.966746 253.060606 656.287411 243.444444 656.287411 243.444444 666.679335 255 666.679335 255 672"></polygon>
                <polygon id="Shape" points="263 673 263 637 267.363636 637 267.363636 667.540284 279 667.540284 279 673"></polygon>
                <polygon id="Shape" points="306.482143 673 306.482143 657.900474 292.517857 657.900474 292.517857 673 288 673 288 637 292.517857 637 292.517857 652.526066 306.482143 652.526066 306.482143 637 311 637 311 673"></polygon>
                <path d="M339.790476,673 L337.314286,665.682243 L324.685714,665.682243 L322.292063,673 L318,670.897196 L329.390476,637 L332.609524,637 L344,670.897196 L339.790476,673 Z M331.04127,646.757009 L326.253968,661.140187 L335.746032,661.140187 L331.04127,646.757009 Z" id="Shape"></path>
                <polygon id="Shape" points="361.113208 673 357.886792 673 346 638.84186 350.245283 637 359.5 663.372093 368.839623 637 373 638.84186"></polygon>
                <polygon id="Shape" points="379 672 379 637 395 637 395 642.23753 383.363636 642.23753 383.363636 650.966746 392.979798 650.966746 392.979798 656.287411 383.363636 656.287411 383.363636 666.679335 395 666.679335 395 672"></polygon>
                <polygon id="Shape" points="422.52518 672 407.55036 647.973872 407.55036 672 403 672 403 637 406.47482 637 421.44964 661.192399 421.44964 637 426 637 426 672"></polygon>
                <polygon id="Shape" points="458.363636 641.23753 458.363636 650.133017 467.979798 650.133017 467.979798 655.453682 458.363636 655.453682 458.363636 671 454 671 454 636 470 636 470 641.23753"></polygon>
                <path d="M490,672 C481.779661,672 475,663.702517 475,653.542334 C475,643.297483 481.779661,635 490,635 C498.220339,635 505,643.297483 505,653.542334 C505,663.787185 498.220339,672 490,672 M490,640.418764 C484.237288,640.418764 479.661017,646.345538 479.661017,653.542334 C479.661017,660.73913 484.237288,666.665904 490,666.665904 C495.762712,666.665904 500.338983,660.73913 500.338983,653.542334 C500.338983,646.345538 495.677966,640.418764 490,640.418764" id="Shape"></path>
                <path d="M523.541833,672 C517.099602,672 513,666.55814 513,659.944186 L513,636 L517.601594,636 L517.601594,659.944186 C517.601594,663.627907 519.860558,666.725581 523.541833,666.725581 C527.139442,666.725581 529.398406,663.627907 529.398406,659.944186 L529.398406,636 L534,636 L534,659.944186 C534,666.64186 530.067729,672 523.541833,672" id="Shape"></path>
                <polygon id="Shape" points="563.52518 671 548.55036 646.890736 548.55036 671 544 671 544 636 547.47482 636 562.44964 660.109264 562.44964 636 567 636 567 671"></polygon>
                <path d="M586.198606,671 L577,671 L577,636 C577,636 582.351916,636 586.114983,636 C594.393728,636.083135 601,643.897862 601,653.874109 C601,664.016627 594.310105,671 586.198606,671 M586.114983,641.320665 C584.358885,641.23753 582.853659,641.320665 581.599303,641.320665 L581.599303,665.845606 L586.198606,665.845606 C591.885017,665.845606 596.400697,660.940618 596.400697,653.957245 C596.400697,646.890736 591.885017,641.4038 586.114983,641.320665" id="Shape"></path>
                <path d="M626.707937,672 L624.231746,664.682243 L611.685714,664.682243 L609.292063,672 L605,669.897196 L616.390476,636 L619.609524,636 L631,669.897196 L626.707937,672 Z M617.95873,645.757009 L613.171429,660.140187 L622.663492,660.140187 L617.95873,645.757009 Z" id="Shape"></path>
                <polygon id="Shape" points="644.780488 641.320665 644.780488 671 640.302439 671 640.302439 641.320665 634 641.320665 634 636 651 636 651 641.320665"></polygon>
                <polygon id="Shape" points="661 672 661 636.085308 666 636 666 671.914692"></polygon>
                <path d="M688,672 C679.779661,672 673,663.702517 673,653.542334 C673,643.297483 679.779661,635 688,635 C696.220339,635 703,643.297483 703,653.542334 C703,663.787185 696.305085,672 688,672 M688,640.418764 C682.237288,640.418764 677.661017,646.345538 677.661017,653.542334 C677.661017,660.73913 682.237288,666.665904 688,666.665904 C693.762712,666.665904 698.338983,660.73913 698.338983,653.542334 C698.338983,646.345538 693.762712,640.418764 688,640.418764" id="Shape"></path>
                <polygon id="Shape" points="730.52518 671 715.55036 646.890736 715.55036 671 711 671 711 636 714.47482 636 729.44964 660.109264 729.44964 636 734 636 734 671"></polygon>
                <polygon id="Shape" points="164 587.2 164 610 89 610 89 496 163.081292 496 163.081292 518.883824 113.387528 518.883824 113.387528 542.019118 151.138085 542.019118 151.138085 563.897059 113.387528 563.897059 113.387528 587.2"></polygon>
                <polygon id="Shape" points="627 588.116176 627 611 552 611 552 497 625.998888 497 625.998888 519.883824 576.443826 519.883824 576.443826 543.019118 614.068966 543.019118 614.068966 564.813235 576.443826 564.813235 576.443826 588.116176"></polygon>
                <path d="M223.696,147.333333 C221.232,144.083333 220,139.916667 220,135.583333 C220,131.25 221.232,126.75 223.608,122.75 L224.664,121 L226.16,122.416667 C226.336,122.583333 231,127 231,134.416667 C231,138.166667 229.768,142.5 226.336,147.25 L225.104,149 L223.696,147.333333 Z" id="Shape"></path>
                <path d="M275.725806,45.3333333 C273.241935,42.0833333 272,37.9166667 272,33.5833333 C272,29.25 273.241935,24.75 275.637097,20.75 L276.612903,19 L278.120968,20.4166667 C278.209677,20.5833333 283,25 283,32.4166667 C283,36.1666667 281.758065,40.5 278.298387,45.25 L277.056452,47 L275.725806,45.3333333 Z" id="Shape"></path>
                <path d="M312.278586,94.6558704 L311,91 L314.409563,92.8704453 C325.661123,99.0769231 348.590437,109.959514 351.829522,124.412955 C351.829522,124.497976 352,125.433198 352,126.623482 C352,127.728745 351.914761,129.174089 351.232848,130.449393 C350.636175,131.724696 349.18711,133 347.226611,133 L347.056133,133 C344.243243,132.91498 340.748441,131.214575 335.378378,126.708502 C318.50104,112.340081 312.363825,94.7408907 312.278586,94.6558704" id="Shape"></path>
                <path d="M477.726708,212.329645 L479,216 L475.519669,214.122144 C464.3147,207.891076 441.395445,197.050725 438.169772,182.625376 C438.169772,182.540019 438,181.601091 438,180.320735 C438,179.211093 438.084886,177.760022 438.763975,176.479666 C439.358178,175.113952 440.886128,173.918953 442.838509,174.00431 C445.639752,174.089667 449.120083,175.796809 454.552795,180.320735 C471.445135,194.575369 477.641822,212.244288 477.726708,212.329645" id="Shape"></path>
                <path d="M411.324786,99.5934718 C412.299145,88.4599407 420.337607,85.7181009 425.696581,77.6587537 L427.482906,75 L428.294872,78.15727 C428.294872,78.2403561 429.106838,81.7299703 430,89.4569733 L430,90.2878338 C429.918803,94.9406528 425.858974,96.9347181 422.286325,98.1810089 C418.632479,99.3442136 414.57265,100.175074 413.598291,101.005935 L411,103 L411.324786,99.5934718 Z" id="Shape"></path>
                <path d="M245.405983,209.666667 C246.380342,198.5 254.418803,195.75 259.777778,187.666667 L261.564103,185 L262.294872,188.166667 C262.294872,188.25 263.188034,191.75 264,199.5 L264,200.25 C263.918803,204.916667 259.858974,206.916667 256.286325,208.166667 C252.632479,209.333333 248.57265,210.166667 247.598291,211 L245,213 L245.405983,209.666667 Z" id="Shape"></path>
                <path d="M332.24359,90.6666667 C333.217949,79.5 341.25641,76.75 346.615385,68.6666667 L348.482906,66 L349.213675,69.1666667 C349.213675,69.25 350.106838,72.75 350.918803,80.5 L351,81.25 C350.918803,85.9166667 346.858974,87.9166667 343.286325,89.1666667 C339.632479,90.3333333 335.57265,91.1666667 334.598291,92 L332,94 L332.24359,90.6666667 Z" id="Shape"></path>
                <path d="M386.32618,236.666667 C387.304721,225.5 395.377682,222.75 400.759657,214.666667 L402.553648,212 L403.287554,215.166667 C403.287554,215.25 404.184549,218.75 405,226.5 L405,227.333333 C404.918455,232 400.922747,234 397.334764,235.166667 C393.665236,236.333333 389.587983,237.166667 388.609442,238 L386,240 L386.32618,236.666667 Z" id="Shape"></path>
                <path d="M309,179.586721 L309.082474,178.822053 C309.247423,177.122791 309.329897,175.593455 309.329897,173.979156 C309.329897,167.776848 309.412371,163.358766 309.412371,154.18275 L309.329897,149 C309.989691,150.019557 322.030928,172.874635 324.670103,181.031094 C324.835052,181.710799 325,182.390504 325,183.070209 C325,184.684508 324.175258,186.128881 323.020619,186.893549 C321.865979,187.658217 320.463918,187.99807 318.979381,187.99807 C314.608247,188.083033 309.164948,185.364213 309,179.586721" id="Shape"></path>
                <path d="M383.517241,30 C379.285266,29.6619718 377.084639,25.0140845 377,20.7887324 C377,17.8309859 378.354232,14.5352113 381.739812,13.0985915 C389.442006,9.88732394 393.9279,5.49295775 404,0 C404,0 393.166144,21.8873239 387.326019,28.1408451 C386.225705,29.3239437 384.956113,30 383.517241,30 Z" id="Shape"></path>
                <path d="M288,74.5545024 L288.082902,73.7867299 C288.248705,72.0805687 288.331606,70.5450237 288.331606,68.9241706 C288.331606,62.6966825 289.989637,47 289.989637,47 C289.989637,47.0853081 301.015544,67.9004739 303.668394,76.0047393 C303.917098,76.6872038 304,77.3696682 304,78.0521327 C304,79.6729858 303.170984,81.1232227 302.010363,81.8909953 C300.849741,82.6587678 299.440415,83 297.948187,83 C293.637306,83 288.165803,80.2701422 288,74.5545024" id="Shape"></path>
                <path d="M277.244444,107.523992 C277.066667,107.358925 273.333333,103.809981 269.6,94.318618 C268.533333,91.512476 268,88.8714012 268,86.3953935 C268,80.2053743 271.022222,75.0882917 274.311111,70.21881 L276.533333,67 L277.244444,70.7965451 C277.244444,70.8790787 280,85.074856 280,90.4395393 L280,106.451056 L280,110 L277.244444,107.523992 Z" id="Shape"></path>
                <path d="M420.366406,159.572 C420.366406,159.572 417.306233,155.624 413.997939,150.752 C412.343791,148.316 410.689644,145.628 409.283618,143.024 C406.967812,138.572 408.208423,134.204 409.697155,130.256 C411.268595,126.308 413.088158,122.528 412.922743,119 C412.922743,119 421.772432,135.044 426.321337,141.848 C431.697316,150.5 422.434091,159.656 422.516798,159.74 L421.358895,161 L420.366406,159.572 Z" id="Shape"></path>
                <path d="M342.28655,182.223427 C342.204678,182.138829 336.146199,176.047722 335.163743,168.349241 C335.081871,167.672451 335,166.995662 335,166.318872 C335,159.466377 339.093567,153.713666 342.859649,147.453362 L344.333333,145 L345.397661,147.707158 C345.397661,147.791757 348.918129,156.336226 349,162.342733 C349,162.934924 349,163.527115 348.836257,164.119306 C347.935673,169.449024 344.660819,181.546638 344.660819,181.546638 L344.005848,184 L342.28655,182.223427 Z" id="Shape"></path>
                <path d="M284.28655,159.223427 C284.204678,159.138829 278.146199,153.047722 277.163743,145.349241 C277.081871,144.672451 277,143.995662 277,143.318872 C277,136.466377 281.093567,130.713666 284.859649,124.453362 L286.333333,122 L287.397661,124.707158 C287.397661,124.791757 290.918129,133.336226 291,139.342733 C291,139.934924 291,140.611714 290.836257,141.119306 C289.935673,146.449024 286.660819,158.546638 286.578947,158.546638 L285.923977,161 L284.28655,159.223427 Z" id="Shape"></path>
                <path d="M364.28655,144.142857 C364.204678,144.058442 358.146199,137.980519 357.163743,130.298701 C357.081871,129.623377 357,128.948052 357,128.272727 C357,121.435065 361.093567,115.694805 364.859649,109.448052 L366.333333,107 L367.397661,109.701299 C367.397661,109.785714 370.918129,118.311688 371,124.305195 C371,124.896104 371,125.487013 370.836257,126.077922 C369.935673,131.480519 366.660819,143.467532 366.578947,143.551948 L365.923977,146 L364.28655,144.142857 Z" id="Shape"></path>
                <path d="M393.329412,108.142857 C393.247059,108.058442 387.152941,101.980519 386.164706,94.2987013 C386.082353,93.6233766 386,92.9480519 386,92.2727273 C386,85.4350649 390.117647,79.6948052 393.905882,73.4480519 L395.388235,71 L396.458824,73.7012987 C396.458824,73.7857143 400,82.2272727 400,88.3051948 C400,88.8961039 400,89.5714286 399.917647,90.0779221 C399.011765,95.3961039 395.635294,107.467532 395.635294,107.551948 L394.976471,110 L393.329412,108.142857 Z" id="Shape"></path>
                <path d="M231.3829,196.164619 C231.301115,196.081081 221.568773,193.742015 220.260223,185.555283 C219.933086,182.547912 217.806691,177.117936 215.843866,172.773956 C213.881041,168.346437 212,164.7543 212,164.7543 L213.30855,164.085995 L212,164.7543 L214.289963,163 C216.579926,165.339066 220.260223,167.511057 223.531599,169.766585 C226.72119,172.022113 229.747212,174.611794 229.828996,178.538084 C229.828996,184.051597 233.100372,194.243243 233.100372,194.326781 L234,197 L231.3829,196.164619 Z" id="Shape"></path>
                <path d="M371.507812,95.4166667 C371.421875,95.3333333 364.203125,88.5 363.171875,80.9166667 C363.085937,80.0833333 363,79.25 363,78.4166667 C363.085938,71 366.265625,61 370.476562,55.9166667 L372.96875,53 L373.140625,56.8333333 C373.140625,56.8333333 374,75.5833333 374,79.9166667 L374,94.4166667 L374,98 L371.507812,95.4166667 Z" id="Shape"></path>
                <path d="M339.080952,57.359375 C339.161905,53.9140625 341.914286,50.46875 344.909524,47.0234375 C347.985714,43.6601563 351.547619,40.7070312 353.814286,39.3125 L356,38 L356,40.625 C356,40.7890625 356,46.859375 352.438095,52.3554688 C348.552381,58.0976563 340.780952,58.8359375 340.619048,58.8359375 L339,59 L339,57.359375 L339.080952,57.359375 Z" id="Shape"></path>
                <path d="M239.080952,165.435294 C239.161905,161.976471 241.914286,158.517647 244.909524,155.058824 C247.985714,151.682353 251.547619,148.717647 253.814286,147.317647 L256,146 L256,148.552941 C256,148.717647 256,154.811765 252.438095,160.329412 C248.471429,166.094118 240.780952,166.752941 240.619048,166.835294 L239,167 L239,165.435294 L239.080952,165.435294 Z" id="Shape"></path>
                <path d="M428.080952,119.435294 C428.161905,115.976471 430.914286,112.517647 433.909524,109.058824 C436.985714,105.682353 440.547619,102.717647 442.814286,101.317647 L445,100 L445,102.552941 C445,102.717647 445,108.811765 441.438095,114.329412 C437.552381,120.094118 429.780952,120.752941 429.619048,120.835294 L428,121 L428,119.435294 L428.080952,119.435294 Z" id="Shape"></path>
                <path d="M491,123.690722 C491,123.690722 491.661157,113.628866 491.661157,104.226804 C491.743802,96.2268041 498.68595,82.7835052 502.07438,79.0721649 C502.652893,78.5773196 502.900826,78.0824742 503.975207,78 C504.553719,78 505.132231,78.4123711 505.297521,78.8247423 C505.46281,79.2371134 505.545455,79.5670103 505.545455,79.8969072 C505.545455,86.9896907 510.917355,102.989691 511,107.525773 C510.917355,109.340206 509.595041,110.742268 507.942149,112.556701 C506.206612,114.28866 503.975207,116.268041 501.826446,118 C497.363636,121.546392 492.983471,124.597938 492.983471,124.597938 L491,126 L491,123.690722 Z" id="Shape"></path>
                <path d="M397.835165,38.2139303 C397.917582,38.8905473 398,39.6517413 398,40.3283582 C397.835165,51.7462687 385.71978,66.039801 385.71978,66.2089552 L383.412088,69 L383.082418,65.3631841 C383,64.8557214 383,64.3482587 383,63.7562189 C383,54.960199 387.285714,43.7960199 390.912088,38.3830846 C392.230769,36.6069652 393.137363,35.2537313 395.115385,35 C396.928571,35.1691542 397.67033,36.7761194 397.835165,38.2139303" id="Shape"></path>
                <path d="M400.926067,119.709099 C400.843014,120.372467 400.75996,121.035834 400.5108,121.782123 C397.437829,132.478931 381.906865,142.844054 381.906865,143.009896 L379,145 L379.664426,141.517319 C379.74748,141.019793 379.913586,140.522267 379.996639,140.024741 C382.322131,131.732642 389.298607,122.279649 394.198751,118.1336 C395.94287,116.806864 397.188669,115.728891 399.181948,116.060575 C400.843014,116.558101 401.175227,118.299442 400.926067,119.709099" id="Shape"></path>
                <path d="M459.090604,106.510769 C460.768456,101.193846 464.879195,95.5446154 469.073826,90.9753846 C473.436242,86.4892308 477.211409,83.2492308 480.399329,83 C480.986577,83 481.825503,83.2492308 482.328859,83.8307692 C482.832215,84.4123077 483,85.16 483,85.7415385 C483,86.1569231 482.916107,86.5723077 482.832215,86.9876923 C480.147651,98.3692308 461.355705,108.006154 461.271812,108.255385 L458,110 L459.090604,106.510769 Z" id="Shape"></path>
                <path d="M457.832215,142.987692 C455.147651,154.369231 436.271812,164.006154 436.271812,164.255385 L433,166 L434.090604,162.510769 C435.768456,157.193846 439.879195,151.544615 444.073826,146.975385 C448.436242,142.489231 452.211409,139.249231 455.399329,139 C455.986577,139 456.825503,139.249231 457.328859,139.830769 C457.832215,140.412308 458,141.16 458,141.741538 C458,142.073846 457.916107,142.489231 457.832215,142.987692" id="Shape"></path>
                <path d="M320.125749,30.6229167 C325.323353,39.5916667 327,46.9375 327,52.83125 C327,63.85 320.796407,69.1458333 320.628743,69.23125 L319.790419,70 L318.868263,69.3166667 C314.08982,65.64375 313.083832,56.41875 313,47.70625 C313,40.8729167 313.838323,34.5520833 315.179641,31.30625 C315.682635,30.28125 316.185629,29.1708333 317.862275,29 C319.035928,29 319.622754,29.8541667 320.125749,30.6229167" id="Shape"></path>
                <path d="M282.285012,192.808511 C276.604423,191.361702 273.346437,187.106383 271.592138,181.914894 C269.837838,176.808511 269.169533,170.595745 268.334152,164.553191 L268,162 L270.339066,162.93617 C270.422604,163.021277 285.710074,168.808511 290.638821,175.617021 C294.899263,181.744681 300.914005,190.425532 300.914005,190.425532 L302,192.042553 L300.2457,192.723404 C300.078624,192.808511 296.904177,194 291.641278,194 C288.968059,194 285.793612,193.659574 282.285012,192.808511" id="Shape"></path>
                <path d="M245.643091,89.0905368 C242.800649,85.7991632 239.038594,82.0014244 235.44374,80.0603579 C226.916414,75.1654945 227.000016,65.038191 227.000016,64.9537968 L227,62 L229.34085,63.6878839 C233.771716,66.8948633 237.199366,67.3168343 240.459815,68.1607763 C243.803864,69.0047182 246.980711,70.9457847 248.652736,76.4314075 C252.080386,86.8962877 253,93.901006 253,93.9854002 L250.32476,94.9981305 C250.32476,95.0825247 248.401932,92.2975162 245.643091,89.0905368" id="Shape"></path>
                <path d="M480.203755,191.4 L476,190.44 L479.95153,188.76 C485.752711,186.36 488.86349,183 495.505422,183 C497.271,183 499.204727,183.24 501.558829,183.8 C512.572667,186.36 513.077118,193.88 512.993043,194.2 L512.993043,195.08 L512.152292,195.48 C512.068217,195.56 508.957438,197 504.585533,197 C503.156256,197 501.558829,196.84 499.877328,196.36 C493.992071,194.68 480.28783,191.48 480.203755,191.4" id="Shape"></path>
                <path d="M265.203681,218.48 L261,217.44 L264.95146,215.76 C270.75254,213.36 273.863265,210 280.505081,210 C282.270627,210 284.20432,210.24 286.558382,210.8 C297.6561,213.36 298.076468,220.88 297.992395,221.2 L297.992395,222.08 L297.151659,222.48 C297.067585,222.56 293.956861,224 289.585032,224 C288.155781,224 286.558382,223.84 284.876909,223.36 C278.991756,221.76 265.203681,218.48 265.203681,218.48" id="Shape"></path>
                <path d="M415.126967,22.0047847 L411,21.0287081 L414.879349,19.3205742 C422.060271,16.2296651 425.857081,12 433.863397,12 C436.009419,12 438.40306,12.3253589 441.209398,12.9760766 C454.58077,16.2296651 455.076006,25.5023923 454.993467,25.8277512 L454.993467,26.722488 L454.168074,27.1291866 C454.002995,27.2105263 450.288725,29 445.088746,29 C443.35542,29 441.374476,28.7559809 439.393532,28.2679426 C432.047531,26.15311 415.209506,22.0047847 415.126967,22.0047847" id="Shape"></path>
                <path d="M410.02,70.4193548 C412.825,59.5921659 420.475,46.4631336 427.275,42.4562212 C433.565,38.875576 438.07,37.937788 438.155,37.937788 L443,37 L439.43,40.5806452 C439.43,40.5806452 438.665,41.3479263 437.305,43.3087558 C435.945,45.2695853 433.99,48.5092166 431.865,53.1981567 C427.105,63.5138249 412.23,72.0391705 412.145,72.2096774 L409,74 L410.02,70.4193548 Z" id="Shape"></path>
                <path d="M449.061069,238.752212 C449.061069,238.752212 444.022901,236.339823 438.984733,232.846018 C434.030534,229.269027 428.656489,224.943363 428.48855,219.536283 C428.48855,211.300885 425.969466,202.316814 420.343511,196.743363 C420.007634,196.410619 419.755725,196.161062 419.587786,195.911504 C419.419847,195.578761 419.167939,195.661947 419,194.580531 C419,194.330973 419.083969,193.831858 419.503817,193.415929 C419.923664,193.083186 420.343511,193 420.59542,193 C421.770992,193.166372 421.854962,193.415929 422.694656,193.915044 C423.366412,194.414159 424.374046,194.99646 425.381679,195.828319 C427.564885,197.40885 430.251908,199.488496 433.022901,201.817699 C438.564885,206.559292 443.938931,211.300885 445.114504,214.79469 C446.877863,220.784071 451.160305,236.922124 451.160305,236.922124 L452,240 L449.061069,238.752212 Z" id="Shape"></path>
                <path d="M492.984772,169.585841 C492.901015,169.585841 487.959391,167.173451 482.93401,163.762832 C477.908629,160.185841 472.63198,155.860177 472.464467,150.453097 C472.464467,142.217699 469.951777,133.233628 464.340102,127.660177 L464.758883,127.244248 L464.340102,127.660177 C464.005076,127.327434 463.753807,127.077876 463.586294,126.828319 C463.418782,126.495575 463.167513,126.578761 463,125.497345 C463,125.164602 463.083756,124.665487 463.586294,124.332743 C464.005076,124 464.340102,124 464.591371,124 C465.763959,124.166372 465.847716,124.415929 466.685279,124.915044 C467.439086,125.330973 468.360406,125.99646 469.449239,126.828319 C471.543147,128.40885 474.307107,130.488496 477.071066,132.817699 C482.598985,137.476106 488.043147,142.300885 489.13198,145.79469 C490.890863,151.784071 495.162437,167.922124 495.162437,167.922124 L496,171 L492.984772,169.585841 Z" id="Shape"></path>
                <path d="M360.644195,26.25 C360.644195,26.25 342.846442,23.6666667 338.067416,23.6666667 C334.606742,23.5833333 331.310861,20.75 328.426966,18.1666667 C325.625468,15.5 323.483146,12.9166667 323.400749,12.9166667 L322,11.25 L324.059925,10.5833333 C324.142322,10.5833333 328.756554,9 334.689139,9 C339.550562,9 345.318352,10.0833333 349.932584,14.25 L366,27 L360.644195,26.25 Z" id="Shape"></path>
                <path d="M294.75,107.284823 L294,102 L297.333333,106.091476 C304.333333,115.212058 315.416667,114.10395 320.5,123.821206 C324.916667,132.77131 325.75,140.783784 325.75,140.869023 L326,143 L324,142.488565 C323.833333,142.318087 306.166667,138.652807 301,129.702703 C296.583333,121.519751 294.75,107.370062 294.75,107.284823" id="Shape"></path>
                <path d="M309.084184,229.894737 C309.252551,229.726316 309.084184,211.452632 316.576531,204.631579 C323.647959,198.484211 336.94898,193.852632 337.033163,193.768421 L342,192 L338.716837,196.126316 C335.096939,200.589474 334.002551,205.389474 332.908163,210.021053 C331.813776,214.652632 330.635204,219.284211 326.42602,222.652632 C318.681122,228.8 311.104592,231.326316 311.020408,231.326316 L309,232 L309.084184,229.894737 Z" id="Shape"></path>
                <path d="M251.849794,122.75 C249.487654,119.25 244.679012,115.666667 240.460905,113.083333 C236.242798,110.5 230,105 230,105 C234.72428,106.583333 243.751029,107 248.897119,107.333333 C254.04321,107.583333 259.358025,109.166667 262.985597,115.166667 L269.903292,126.25 L271,128 L268.975309,128.5 C268.890947,128.5 267.119342,128.916667 264.67284,129 L264.588477,129 C260.876543,128.916667 255.308642,127.916667 251.849794,122.75" id="Shape"></path>
                <path d="M443.588235,79.02693 C446.109244,64.7396768 449.638655,52.2692998 460.394958,44.7540395 L470.647059,37.6517056 L473,36 L472.831933,38.8904847 C472.747899,39.0556553 472.07563,58.4631957 466.865546,64.9874327 C461.823529,70.9335727 445.689076,80.4308797 445.689076,80.4308797 L443,82 L443.588235,79.02693 Z" id="Shape"></path>
                <path d="M539.5,241 C518.75,241 502,257.75 502,278.5 C502,299.166667 518.75,316 539.5,316 C560,316 576.583333,299.583333 577,279.166667 L577,277.75 C576.583333,257.333333 559.916667,241 539.5,241" id="Shape"></path>
                <path d="M463,388 C454.157895,388 447,395.157895 447,404 C447,412.842105 454.157895,420 463,420 C471.842105,420 479,412.842105 479,404 C479,395.157895 471.842105,388 463,388" id="Shape"></path>
                <path d="M504.844063,458.832803 L504.844063,386.352707 L463.479185,373.06051 L427.629625,388.944268 C423.033527,390.950637 417.768906,388.860669 415.763337,384.346338 C413.757767,379.832006 415.846902,374.481688 420.359434,372.558917 L462.392835,354 L522.727061,373.394904 L522.727061,441.026274 L582.058501,441.026274 C586.98886,441.026274 591,445.039013 591,449.971338 C591,454.903662 586.98886,459 582.058501,459 L504.844063,459 L504.844063,458.832803 Z" id="Shape"></path>
                <path d="M293,365.5 C293,370.704348 288.704348,375 283.5,375 C278.295652,375 274,370.786957 274,365.5 C274,360.295652 278.213043,356 283.5,356 C288.786957,356 293,360.213043 293,365.5" id="Shape"></path>
                <path d="M467,290.5 C467,295.704348 462.786957,300 457.5,300 C452.295652,300 448,295.786957 448,290.5 C448,285.295652 452.213043,281 457.5,281 C462.704348,281.082609 467,285.295652 467,290.5" id="Shape"></path>
                <path d="M454,340.587156 L454,312.412844 C454,309.951835 455.990385,308 458.5,308 C461.009615,308 463,309.951835 463,312.412844 L463,340.587156 C463,343.048165 461.009615,345 458.5,345 C456.076923,345 454,343.048165 454,340.587156" id="Shape"></path>
                <path d="M432.185477,334.319829 C430.072052,333.129529 429.395755,330.408844 430.579274,328.283309 L442.837144,307.198 C444.020662,305.072464 446.725847,304.392293 448.839273,305.582593 C450.952699,306.772893 451.628996,309.493578 450.36094,311.619113 L438.10307,332.789443 C437.2577,334.234807 435.82057,335 434.298903,335 C433.622607,334.914979 432.861774,334.659914 432.185477,334.319829" id="Shape"></path>
                <path d="M476.751665,333.505688 L466.404565,311.140025 C465.403233,308.978288 466.321121,306.400832 468.490674,305.403108 C470.660227,304.405383 473.247002,305.319964 474.248335,307.481701 L484.595435,329.847364 C485.596767,332.009101 484.678879,334.586557 482.509326,335.584281 C481.925215,335.833713 481.341105,336 480.67355,336 C479.088107,336 477.502665,335.085419 476.751665,333.505688" id="Shape"></path>
                <path d="M319.137483,343.225371 L312.213148,338.37247 L312.213148,316.952767 C312.213148,312.016194 308.208713,308 303.286595,308 C298.364477,308 294.360042,312.016194 294.360042,316.952767 L294.360042,326.072874 L284.098678,318.960864 L239.13221,343.309042 L239.13221,415.182186 L202.842018,415.265857 C202.842018,415.265857 195,415.60054 195,424.385965 C195,431.665317 203.00887,432 203.00887,432 L257.068742,431.916329 L257.068742,354.018893 L282.930717,339.962213 L309.04297,357.951417 C313.130831,360.796221 318.720355,359.708502 321.473404,355.608637 C324.226453,351.676113 323.141918,346.070175 319.137483,343.225371" id="Shape"></path>
                <path d="M346,264.816654 L346,457 L327.236584,457 L327.236584,266.736818 C327.236584,266.736818 325.637908,257.135999 316.634834,257.135999 C307.715901,257.135999 306.285506,265.734993 306.369647,265.818478 C306.453788,265.901964 305.528238,271.662455 309.146296,274.500958 C316.045848,280.010993 313.016776,286.94028 310.576691,289.27787 C310.576691,289.27787 304.181984,295.622759 296.777587,289.027414 C296.777587,289.027414 285.839273,280.261449 287.101386,265.484537 C288.363499,250.707625 300.648067,238.518759 314.615453,238.017847 C327.573148,237.60042 343.896478,244.446221 346,264.816654" id="Shape"></path>
                <path d="M382,271.765554 L382,456 L400.763416,456 L400.763416,273.682059 C400.763416,273.682059 402.446233,264.099535 411.365166,264.099535 C420.284099,264.099535 421.714494,272.682144 421.630353,272.76547 C421.546212,272.848796 422.471762,278.598311 418.853704,281.431405 C411.954152,286.930941 414.983224,293.847023 417.423309,296.18016 C417.423309,296.18016 423.818016,302.512958 431.222413,295.930181 C431.222413,295.930181 442.160727,287.18092 440.898614,272.432165 C439.636501,257.68341 427.351933,245.51777 413.384547,245.017813 C400.426852,244.601181 384.187663,251.433938 382,271.765554" id="Shape"></path>
                <path d="M354,180.800783 L354,304.469433 C354,307.983697 357.197353,312 363.255496,312 C369.566062,312 372.763416,307.816351 372.763416,304.469433 L372.763416,182.725261 C372.763416,182.725261 374.446233,173.102869 383.365166,173.102869 C392.284099,173.102869 393.714494,181.721185 393.630353,181.804858 C393.546212,181.888531 394.471762,187.661966 390.853704,190.506847 C383.954152,195.94559 386.983224,202.97412 389.423309,205.316963 C389.423309,205.316963 395.818016,211.676109 403.222413,205.149617 C403.222413,205.149617 414.160727,196.363955 412.898614,181.553839 C411.636501,166.743724 399.351933,154.52747 385.384547,154.025432 C372.426852,153.523394 356.103522,160.384578 354,180.800783" id="Shape"></path>
                <path d="M204.737188,459 C200.448095,459 197,455.453608 197,451 C197,446.628866 200.448095,443 204.737188,443 L253.262812,443 C257.551905,443 261,446.546392 261,451 C261,455.453608 257.551905,459 253.262812,459 L204.737188,459 Z" id="Shape"></path>
            </g>
        </g>
    </g>
</svg>